<svg fill="#FFFFFF" xmlns:dc="http://purl.org/dc/elements/1.1/" xmlns:cc="http://creativecommons.org/ns#" xmlns:rdf="http://www.w3.org/1999/02/22-rdf-syntax-ns#" xmlns:svg="http://www.w3.org/2000/svg" xmlns="http://www.w3.org/2000/svg" xmlns:sodipodi="http://sodipodi.sourceforge.net/DTD/sodipodi-0.dtd" xmlns:inkscape="http://www.inkscape.org/namespaces/inkscape" viewBox="0 0 365.27173 779.89499" version="1.1" x="0px" y="0px"><g transform="translate(-223.96477,-166.72)"><path style="" d="m 406.822,166.72 c 0,0 -109.984,116.778 -128.852,192.37 l -0.243,0 c 0,0.805 -0.241,1.675 -0.241,2.544 -0.868,7.013 -1.496,14.079 -2.303,21.091 -9.868,112.58 7.389,226.8 46.425,342.795 l 170.428,0 c 38.725,-115.188 55.798,-228.902 46.304,-340.612 -0.559,-8.443 -1.428,-16.773 -2.546,-25.213 l 0,-0.608 C 516.989,283.498 406.822,166.72 406.822,166.72 Z m -0.121,182.185 c 33.39,0 60.363,27.219 60.363,60.608 0,33.389 -26.975,60.365 -60.363,60.365 -33.39,0 -60.485,-26.976 -60.485,-60.365 0,-33.389 27.095,-60.608 60.485,-60.608 z m 140.244,205.58 c -5.585,42.947 -15.212,86.48 -28.121,130.792 5.089,6.702 8.782,14.178 11.636,22.061 l 27.395,79.638 c 2.544,7.322 12.937,6.48 14.303,-1.091 l 13.455,-71.638 c 11.048,-56.726 -3.541,-114.828 -38.668,-159.762 z m -280.734,0.243 c -35.125,44.995 -49.462,102.793 -38.787,159.519 l 13.455,71.638 c 1.366,7.571 12,8.413 14.546,1.091 l 27.514,-79.638 c 2.546,-7.882 6.496,-15.297 11.273,-22.061 -12.66,-44.064 -22.103,-87.85 -28.001,-130.549 z m 88.852,193.701 c -10.614,7.572 -25.101,23.658 -19.515,53.819 8.191,45.926 68.122,105.578 68.122,144.367 0,-38.789 59.924,-98.441 68.364,-144.367 5.399,-30.161 -9.144,-46.247 -19.758,-53.819 l -19.756,0 c 1.116,3.413 1.536,7.521 0.605,12.486 -3.537,19.735 -29.455,45.423 -29.455,62.304 0,-16.819 -25.977,-42.569 -29.578,-62.304 -0.929,-4.965 -0.509,-9.073 0.608,-12.486 l -19.637,0 z" fill="#FFFFFF"></path></g></svg>