<svg xmlns="http://www.w3.org/2000/svg" viewBox="0 0 351.31 47.15"><defs><style>.cls-1{fill:#fff;}</style></defs><title>Asset 1</title><g id="Layer_2" data-name="Layer 2"><g id="Layer_1-2" data-name="Layer 1"><path class="cls-1" d="M216.1,41.52H216c-2.84,3.59-5.69,5.63-10.27,5.63-5.75,0-9.83-3.22-9.83-9.09,0-10.51,11.75-11.32,19.54-11.32h2.91a10,10,0,0,0,.25-2.72c0-3.21-3.46-4.14-6.37-4.14a24.49,24.49,0,0,0-10.45,2.47l1.17-6.62a32.48,32.48,0,0,1,10.82-1.92c6.37,0,12.37,2.35,12.37,9.83,0,4.27-3.15,16.76-3.9,22.76h-7l.87-4.89m-8.1-.43c6.18,0,8.1-4.27,9.4-9.4H214.5c-4,0-10.7.68-10.7,6.06C203.8,40,205.9,41.09,208,41.09Z"/><path class="cls-1" d="M1.3,14.53h6L8.72,8l8.9-2.91-2,9.46H23l-1.3,6.06H14.28l-3,13.91a13.16,13.16,0,0,0-.37,3.09A2.94,2.94,0,0,0,14,40.69a11.08,11.08,0,0,0,4-.74l-1.42,6.43a22.38,22.38,0,0,1-4.45.74c-5.63,0-9.58-2.23-9.58-8.35a34.6,34.6,0,0,1,1.05-7.42L6,20.59H0Z"/><path class="cls-1" d="M26.41,14.53h8.29l-6.8,31.85H19.6l6.8-31.85M29.44.8h8.29L36,8.72H27.7Z"/><path class="cls-1" d="M59.71,21.83a11.21,11.21,0,0,0-6.06-1.61C47,20.22,43.33,26.4,43.33,32.4c0,4.14,1.36,8.28,7,8.28a16.26,16.26,0,0,0,6.74-1.61l-.93,6.56a17.81,17.81,0,0,1-8,1.48c-8.22,0-13.54-5.5-13.54-13.73,0-11.13,7.36-19.6,18.8-19.6A29.32,29.32,0,0,1,61.76,15Z"/><polygon class="cls-1" points="68.8 0 77.09 0 71.58 26.1 71.71 26.1 83.27 14.53 94.03 14.53 78.76 29.06 88.34 46.38 79 46.38 70.78 29.5 70.66 29.5 67.07 46.38 58.97 46.38 68.8 0"/><path class="cls-1" d="M123.9,14.53h6L131.32,8l8.9-2.91-2,9.46h7.42l-1.3,6.06h-7.42l-3,13.91a13.17,13.17,0,0,0-.37,3.09,2.94,2.94,0,0,0,3.15,3.09,11.07,11.07,0,0,0,4-.74l-1.42,6.43a22.34,22.34,0,0,1-4.45.74c-5.63,0-9.58-2.23-9.58-8.35a34.59,34.59,0,0,1,1.05-7.42l2.35-10.76h-6Z"/><path class="cls-1" d="M121.13,25.91c0-8.1-5.19-12.12-13-12.12C97.63,13.79,90,23.31,90,33.21c0,9.46,6.18,13.91,15.34,13.91a35.31,35.31,0,0,0,10.14-1.79l1.05-6.56a23.33,23.33,0,0,1-9.77,2.29c-5.3,0-8.4-1.88-8.8-6.89h0c0-.29,0-.57,0-.88,0-.06,0-.12,0-.18s0-.06,0-.09h0a17.17,17.17,0,0,1,1.35-6.32h0c1.59-4.05,3.84-6.85,8.73-6.85,3.46,0,5.26,1.92,5.26,5.32a12.85,12.85,0,0,1-.19,2.16H101.69a19.45,19.45,0,0,0-.88,5.69h19.51A34.44,34.44,0,0,0,121.13,25.91Z"/><path class="cls-1" d="M149.18,18.06c.25-1.24.49-2.54.68-3.53h7.73l-.74,4.27H157a11.61,11.61,0,0,1,9.77-5c3.77,0,7.67,2.23,8.1,6.06H175c2.1-4.14,6.74-6.06,11.19-6.06A8.85,8.85,0,0,1,195,22.51a36.21,36.21,0,0,1-1.42,8.66l-3.34,15.21H182l3.34-15.52a37.08,37.08,0,0,0,1.05-6.8,3.75,3.75,0,0,0-3.9-3.83c-5.75,0-7.17,6.68-8.22,11l-3.28,15.15h-8.29L166,30.86a37,37,0,0,0,1.05-6.8,3.75,3.75,0,0,0-3.9-3.83c-5.63,0-7.17,6.74-8.22,11l-3.28,15.15h-8.29Z"/><path class="cls-1" d="M250.73,21a13.46,13.46,0,0,0-5.53-1.17c-2.47,0-5.56.68-5.56,3.21,0,4,10.76,5.51,10.76,13.3,0,8.29-7.23,10.76-14.35,10.76a22.7,22.7,0,0,1-9.71-1.92l1.79-6.62a15.57,15.57,0,0,0,7.92,2.47c2.78,0,5.69-.93,5.69-3.52,0-5.13-10.76-5.63-10.76-13.6,0-7.48,7.23-10.14,13.79-10.14a33.86,33.86,0,0,1,7.75,1Z"/><path class="cls-1" d="M256,14.53h6L263.45,8l8.91-2.91-2,9.46h7.42l-1.3,6.06H269L266,34.5a13.17,13.17,0,0,0-.37,3.09,2.94,2.94,0,0,0,3.15,3.09,11.07,11.07,0,0,0,4-.74l-1.42,6.43a22.37,22.37,0,0,1-4.45.74c-5.63,0-9.58-2.23-9.58-8.35a34.72,34.72,0,0,1,1-7.42l2.35-10.76h-6Z"/><path class="cls-1" d="M312.2,18.8q.37-2,.74-4.27h7.92l-1.11,6h.13c1.48-3.46,5.56-6.74,9.4-6.74a13.21,13.21,0,0,1,3.15.31l-1.73,8.1a10.51,10.51,0,0,0-3.15-.5c-5.87,0-8.72,5.26-9.77,10.39l-3,14.28h-8.29Z"/><path class="cls-1" d="M306.45,25.91c0-8.1-5.19-12.12-13-12.12-10.45,0-18.12,9.52-18.12,19.42,0,9.46,6.18,13.91,15.34,13.91a35.31,35.31,0,0,0,10.14-1.79l1.05-6.56A23.32,23.32,0,0,1,292,41.06c-5.3,0-8.4-1.88-8.8-6.89h0c0-.29,0-.57,0-.88,0-.06,0-.12,0-.18s0-.06,0-.09h0a17.13,17.13,0,0,1,1.35-6.32h0c1.59-4.05,3.84-6.85,8.73-6.85,3.46,0,5.26,1.92,5.26,5.32a12.85,12.85,0,0,1-.18,2.16H287a19.44,19.44,0,0,0-.88,5.69h19.51A34.37,34.37,0,0,0,306.45,25.91Z"/><path class="cls-1" d="M344.15,12.63A7.16,7.16,0,1,1,337,19.79,7.17,7.17,0,0,1,344.15,12.63Zm0,13.25a5.83,5.83,0,0,0,5.77-6.09,5.8,5.8,0,1,0-11.59,0A5.84,5.84,0,0,0,344.17,25.88Zm-2.76-10.3h3.21c1.93,0,2.88.78,2.88,2.37a2.14,2.14,0,0,1-2.17,2.32L347.72,24h-1.45l-2.34-3.71h-1.15V24h-1.37Zm1.37,3.61h1.62c1.05,0,1.73-.22,1.73-1.31s-.85-1.23-1.73-1.23h-1.62Z"/></g></g></svg>