<svg xmlns="http://www.w3.org/2000/svg" width="800" height="800" viewBox="0 0 800 800">
    <path fill="#F6F7F9" d="M0 0h800v800H0z"/>
    <g fill="#E0BD5A">
        <path fill-rule="evenodd" clip-rule="evenodd" d="M704.805 399.321l2.137-.07c.471-.015 1.119-.067 1.422-.488a.992.992 0 0 0 .123-.216c.253-.647-.697-.92-1.223-.93l-.531-.009-4.974-.09c-1.07-.02-2.142-.039-3.209-.062a.958.958 0 0 0-.975.939l-.005.158a.958.958 0 0 0 .94.974l5.261-.173 1.034-.033M708.445 400.614a.494.494 0 0 0 .064-.133c.295-1.057-1.747-.756-2.222-.739-1.622.049-3.239.098-4.858.149l-2.928.087a.955.955 0 0 0-.973.937l-.003.16c-.01.53.41.966.937.974 1.755-.055 6.925-.715 7.739-.801a21.42 21.42 0 0 0 1.239-.165c.274-.046.818-.192 1.005-.469z"/>
        <g fill-rule="evenodd" clip-rule="evenodd">
            <path d="M723.926 419.524c-.622-.307-.978.614-1.031 1.137-.02.177-.036.354-.057.531-.173 1.648-.351 3.297-.527 4.948-.111 1.062-.224 2.127-.338 3.19a.959.959 0 0 0 .849 1.052l.159.017a.954.954 0 0 0 1.05-.849c.096-1.749.193-3.504.285-5.254.059-1.057.12-2.113.176-3.17.026-.473.03-1.121-.363-1.462a1.22 1.22 0 0 0-.203-.14zM725.773 419.726a.665.665 0 0 0-.13-.079c-1.024-.382-.903 1.679-.929 2.151-.094 1.619-.186 3.235-.278 4.853-.057.975-.112 1.95-.167 2.925a.955.955 0 0 0 .849 1.05l.161.017a.955.955 0 0 0 1.05-.848c.096-1.751-.107-6.96-.124-7.779a18.631 18.631 0 0 0-.055-1.25c-.02-.275-.119-.83-.377-1.04z"/>
        </g>
        <path d="M722.939 428.882c-.621-1.277-.16-2.753-.029-4.087.055-.56.131-1.118.182-1.682.041-.427-.094-1.712.163-2.029-.839 1.042-1.266 2.064-1.781 3.032-.558 1.044-1.123 2.079-1.88 2.996-.497.604-1.146.94-1.926.641-.751-.287-.752-.985-.716-1.647.028-.609.082-1.211.275-1.803.523-1.614.999-3.242 1.495-4.866-.415.216-.691.518-.957.828-1.138 1.334-2.147 2.782-3.491 3.933-.616.527-1.294 1.082-2.138.516-.817-.55-.672-1.351-.395-2.157.323-.945.8-1.808 1.267-2.683.543-1.015 1.255-1.951 1.691-3.372-.525.423-.817.656-1.107.891-1.457 1.166-2.812 2.473-4.497 3.328-.593.302-1.234.469-1.809-.066-.605-.563-.527-1.219-.176-1.881.502-.947 1.16-1.784 1.859-2.596.79-.913 1.552-1.847 2.322-2.771-.657.068-1.122.324-1.597.558-1.567.772-3.024 1.783-4.765 2.178-.636.144-1.211.108-1.646-.445-.493-.634-.258-1.229.14-1.785.532-.755 1.226-1.351 1.934-1.938 1.044-.869 2.249-1.545 3.192-2.589-.361-.196-.623-.048-.913.021-1.838.443-3.591 1.249-5.512 1.359-.793.046-1.562-.019-1.863-.941-.278-.859.306-1.372.862-1.817 1.197-.961 2.604-1.572 3.971-2.245.577-.282 1.206-.509 1.707-1.104a26.151 26.151 0 0 0-2.634.116c-1.285.114-2.583.397-3.877.156-.729-.136-1.552-.27-1.754-1.213-.187-.875.372-1.33 1.001-1.738.181-.259.415-.436.739-.461 1.534-.117 3.051-.363 4.573-.567.326-.042 1.314-.304 1.35.298-1.744.509-4.039 1.07-5.607 2.043a39.97 39.97 0 0 0 3.92.169c1.024-.001 2.052-.298 3.074-.039.491.12 1.152.056 1.307.729.146.635-.35.998-.793 1.271-1.492.917-3.021 1.775-4.519 2.686-.519.313-1.136.534-1.482 1.178 1.801-.101 3.422-.68 5.083-1.06.814-.188 1.629-.396 2.477-.344.976.061 1.229.508.704 1.348-.236.377-.587.695-.91 1.016-1.476 1.46-3.263 2.593-4.53 4.312a12.062 12.062 0 0 0 1.908-.647c1.614-.677 3.131-1.574 4.807-2.114.473-.154.895-.226 1.268.164.414.437.131.866-.086 1.257-.766 1.374-1.83 2.53-2.774 3.776-.532.707-1.124 1.378-1.549 2.408 1.186-.64 2.079-1.279 2.962-1.945 1.1-.818 2.12-1.746 3.388-2.315.394-.18.779-.375 1.166-.037.377.329.3.76.169 1.169-.36 1.13-.96 2.151-1.473 3.217-.552 1.146-1.254 2.237-1.547 3.569.61-.216.938-.655 1.3-1.034 1.216-1.266 2.402-2.559 3.618-3.823.423-.439.935-.982 1.572-.564.565.373.49 1.058.315 1.68a39.467 39.467 0 0 0-.501 1.985c-.348 1.515-.935 2.978-1.03 4.658.658-.412.915-.98 1.232-1.482.898-1.42 1.758-2.856 2.645-4.28.312-.498.726-1.021 1.354-.852.69.186.778.882.764 1.506-.03 1.403-1.3 8.422-1.492 8.027z"/>
    </g>
    <path fill="#009CDE" d="M691.444 390.92l7.841-6.938 8.602 12.326-2.22 2.81-2.084-1.973-2.341 2.914-4.943-2.204z"/>
    <path fill="#C40202" d="M696.338 570.093s-2.914-2.002-2.914-4.915c0 0-7.65 10.197-2.55 25.679 0 0 6.557 15.844 21.308 18.759 0 0 11.475 1.82 19.123-1.641 0 0 16.757-6.921 17.668-24.041 0 0 .546-4.917-3.098-11.655 0 0-4.37-13.478-2.731-18.394 0 0-6.191.909-10.017 8.923 0 0-3.097-22.946-23.494-29.686 0 0 4.37 6.376.182 15.48 0 0-4.006 4.736-6.737 8.196-.001.001-6.376 10.197-6.74 13.295z"/>
    <path fill="#E0BD5A" d="M706.651 583.269s-1.72-1.182-1.72-2.9c0 0-4.516 6.018-1.505 15.154 0 0 3.869 9.35 12.574 11.07 0 0 6.771 1.074 11.285-.969 0 0 9.89-4.084 10.427-14.188 0 0 .322-2.901-1.828-6.878 0 0-2.578-7.954-1.611-10.855 0 0-3.654.537-5.911 5.266 0 0-1.828-13.541-13.865-17.519 0 0 2.579 3.763.107 9.136 0 0-2.364 2.795-3.977 4.837.001 0-3.761 6.017-3.976 7.846z"/>
    <path fill="#DFE4E7" d="M536.523 721.807H360.4v5.216h176.38l-1.28-.773 2.5-2.375zM670.657 721.807H546.523l1.852 1.693-.25 3.523h122.532z"/>
    <g fill="#BBC3C9">
        <circle cx="528.208" cy="262.736" r="30.765"/>
        <path d="M527.393 293.502c0 14.751 11.962 26.714 26.713 26.714 14.752 0 26.716-11.963 26.716-26.714 0-14.753-11.964-26.715-26.716-26.715s-26.713 11.962-26.713 26.715z"/>
        <path d="M508.021 293.502c0 11.146 9.04 20.187 20.188 20.187 11.145 0 20.188-9.041 20.188-20.187s-9.043-20.188-20.188-20.188c-11.147 0-20.188 9.041-20.188 20.188z"/>
        <path d="M506.389 323.449c0 11.594 9.411 21.005 21.004 21.005s21.005-9.411 21.005-21.005c0-11.592-9.412-21.001-21.005-21.001s-21.004 9.409-21.004 21.001z"/>
        <path d="M504.73 344.454c0 7.57 6.147 13.717 13.718 13.717 7.569 0 13.717-6.146 13.717-13.717s-6.147-13.719-13.717-13.719-13.718 6.149-13.718 13.719z"/>
    </g>
    <g fill="#BBC3C9">
        <circle cx="318.259" cy="106.865" r="23.987"/>
        <circle cx="298.065" cy="130.853" r="20.829"/>
        <path d="M333.998 130.853c0 8.69-7.049 15.74-15.74 15.74-8.689 0-15.74-7.05-15.74-15.74s7.051-15.74 15.74-15.74c8.691-.001 15.74 7.049 15.74 15.74z"/>
        <path d="M335.271 154.203c0 9.039-7.338 16.377-16.377 16.377s-16.377-7.338-16.377-16.377c0-9.038 7.338-16.375 16.377-16.375s16.377 7.337 16.377 16.375z"/>
        <path d="M336.564 170.58c0 5.902-4.793 10.695-10.695 10.695s-10.695-4.793-10.695-10.695 4.793-10.696 10.695-10.696 10.695 4.794 10.695 10.696z"/>
    </g>
    <path fill="#139AD6" d="M668.166 102.748h2v241.429h-2z"/>
    <path fill="#DFE4E7" d="M655.605 108.029l-286.916 61.392-5.311-13.298 286.913-61.39z"/>
    <path fill="#768692" d="M405.77 135.402h24.996v56.241H405.77z"/>
    <circle fill="#009CDE" cx="418.298" cy="148.827" r="20.659"/>
    <circle fill="#DFE4E7" cx="418.298" cy="148.827" r="14.116"/>
    <path fill="#009CDE" d="M374.117 169.613a8.038 8.038 0 0 1-5.74 9.818 8.036 8.036 0 0 1-9.816-5.735l-4.275-16.301c-1.127-4.297 1.439-8.695 5.735-9.818a8.04 8.04 0 0 1 9.82 5.738l4.276 16.298z"/>
    <circle fill="#009CDE" cx="652.948" cy="102.748" r="17.103"/>
    <path fill="#DFE4E7" d="M664.633 102.748c0 6.457-5.229 11.69-11.685 11.69-6.454 0-11.692-5.233-11.692-11.69 0-6.453 5.238-11.688 11.692-11.688 6.455 0 11.685 5.235 11.685 11.688z"/>
    <path fill="#F6F7F9" d="M711.042 510.912c0 8.139-7.5 14.729-16.74 14.729H498.698c-9.234 0-16.733-6.59-16.733-14.729 0-8.141 7.499-14.736 16.733-14.736h195.604c9.24 0 16.74 6.595 16.74 14.736z"/>
    <path fill="#009CDE" d="M480.336 510.912c0-9.022 8.236-16.364 18.361-16.364h195.604c10.131 0 18.369 7.342 18.369 16.364 0 9.02-8.238 16.361-18.369 16.361H498.697c-10.125 0-18.361-7.341-18.361-16.361zm18.361-13.104c-8.328 0-15.102 5.879-15.102 13.104s6.773 13.099 15.102 13.099h195.604c8.33 0 15.109-5.874 15.109-13.099 0-7.226-6.779-13.104-15.109-13.104H498.697z"/>
    <g fill="#768692">
        <path d="M515.095 511.735c0-.25.082-.58.082-.83s0-.58-.082-.83l1.742-1.245c.165-.082.25-.332.083-.58l-1.66-2.904c-.083-.249-.332-.332-.497-.249l-1.993.912a5.275 5.275 0 0 0-1.492-.83l-.249-2.157c0-.25-.166-.415-.416-.415h-3.319c-.249 0-.415.165-.415.415l-.249 2.075c-.58.249-1.078.497-1.492.829l-1.993-.829c-.165-.083-.414 0-.497.165l-1.66 2.904c-.167.25-.167.499.083.582l1.742 1.327c0 .25-.082.58-.082.83s0 .58.082.83l-1.742 1.245c-.166.082-.25.332-.083.58l1.66 2.904c.083.249.332.332.497.249l1.993-.912c.414.333.994.663 1.492.83l.249 2.157c0 .25.166.415.415.415h3.319c.25 0 .416-.165.416-.415l.249-2.157c.58-.25 1.077-.497 1.492-.83l1.993.912c.165.083.414 0 .497-.165l1.66-2.904a.516.516 0 0 0-.083-.582l-1.742-1.327zm-6.142 2.49c-1.825 0-3.319-1.494-3.319-3.319s1.494-3.319 3.319-3.319 3.319 1.494 3.319 3.319-1.494 3.319-3.319 3.319zM548.876 511.735c0-.25.082-.58.082-.83s0-.58-.082-.83l1.742-1.245c.165-.082.25-.332.083-.58l-1.66-2.904c-.083-.249-.332-.332-.497-.249l-1.993.912a5.275 5.275 0 0 0-1.492-.83l-.249-2.157c0-.25-.166-.415-.416-.415h-3.319c-.249 0-.415.165-.415.415l-.249 2.075c-.58.249-1.078.497-1.492.829l-1.993-.829c-.165-.083-.414 0-.497.165l-1.66 2.904c-.167.25-.167.499.083.582l1.742 1.327c0 .25-.082.58-.082.83s0 .58.082.83l-1.742 1.245c-.166.082-.25.332-.083.58l1.66 2.904c.083.249.332.332.497.249l1.993-.912c.414.333.994.663 1.492.83l.249 2.157c0 .25.166.415.415.415h3.319c.25 0 .416-.165.416-.415l.249-2.157c.58-.25 1.077-.497 1.492-.83l1.993.912c.165.083.414 0 .497-.165l1.66-2.904a.516.516 0 0 0-.083-.582l-1.742-1.327zm-6.142 2.49c-1.825 0-3.319-1.494-3.319-3.319s1.494-3.319 3.319-3.319 3.319 1.494 3.319 3.319-1.493 3.319-3.319 3.319zM582.658 511.735c0-.25.082-.58.082-.83s0-.58-.082-.83l1.742-1.245c.165-.082.25-.332.083-.58l-1.66-2.904c-.083-.249-.332-.332-.497-.249l-1.993.912a5.275 5.275 0 0 0-1.492-.83l-.249-2.157c0-.25-.166-.415-.416-.415h-3.319c-.249 0-.415.165-.415.415l-.249 2.075c-.58.249-1.078.497-1.492.829l-1.993-.829c-.165-.083-.414 0-.497.165l-1.66 2.904c-.167.25-.167.499.083.582l1.742 1.327c0 .25-.082.58-.082.83s0 .58.082.83l-1.742 1.245c-.166.082-.25.332-.083.58l1.66 2.904c.083.249.332.332.497.249l1.993-.912c.414.333.994.663 1.492.83l.249 2.157c0 .25.166.415.415.415h3.319c.25 0 .416-.165.416-.415l.249-2.157c.58-.25 1.077-.497 1.492-.83l1.993.912c.165.083.414 0 .497-.165l1.66-2.904a.516.516 0 0 0-.083-.582l-1.742-1.327zm-6.141 2.49c-1.825 0-3.319-1.494-3.319-3.319s1.494-3.319 3.319-3.319 3.319 1.494 3.319 3.319-1.494 3.319-3.319 3.319zM616.439 511.735c0-.25.082-.58.082-.83s0-.58-.082-.83l1.742-1.245c.165-.082.25-.332.083-.58l-1.66-2.904c-.083-.249-.332-.332-.497-.249l-1.993.912a5.275 5.275 0 0 0-1.492-.83l-.249-2.157c0-.25-.166-.415-.416-.415h-3.319c-.249 0-.415.165-.415.415l-.249 2.075c-.58.249-1.078.497-1.492.829l-1.993-.829c-.165-.083-.414 0-.497.165l-1.66 2.904c-.167.25-.167.499.083.582l1.742 1.327c0 .25-.082.58-.082.83s0 .58.082.83l-1.742 1.245c-.166.082-.25.332-.083.58l1.66 2.904c.083.249.332.332.497.249l1.993-.912c.414.333.994.663 1.492.83l.249 2.157c0 .25.166.415.415.415h3.319c.25 0 .416-.165.416-.415l.249-2.157c.58-.25 1.077-.497 1.492-.83l1.993.912c.165.083.414 0 .497-.165l1.66-2.904a.516.516 0 0 0-.083-.582l-1.742-1.327zm-6.141 2.49c-1.825 0-3.319-1.494-3.319-3.319s1.494-3.319 3.319-3.319 3.319 1.494 3.319 3.319-1.494 3.319-3.319 3.319zM650.222 511.735c0-.25.082-.58.082-.83s0-.58-.082-.83l1.742-1.245c.165-.082.25-.332.083-.58l-1.66-2.904c-.083-.249-.332-.332-.497-.249l-1.993.912a5.275 5.275 0 0 0-1.492-.83l-.249-2.157c0-.25-.166-.415-.416-.415h-3.319c-.249 0-.415.165-.415.415l-.249 2.075c-.58.249-1.078.497-1.492.829l-1.993-.829c-.165-.083-.414 0-.497.165l-1.66 2.904c-.167.25-.167.499.083.582l1.742 1.327c0 .25-.082.58-.082.83s0 .58.082.83l-1.742 1.245c-.166.082-.25.332-.083.58l1.66 2.904c.083.249.332.332.497.249l1.993-.912c.414.333.994.663 1.492.83l.249 2.157c0 .25.166.415.415.415h3.319c.25 0 .416-.165.416-.415l.249-2.157c.58-.25 1.077-.497 1.492-.83l1.993.912c.165.083.414 0 .497-.165l1.66-2.904a.516.516 0 0 0-.083-.582l-1.742-1.327zm-6.142 2.49c-1.825 0-3.319-1.494-3.319-3.319s1.494-3.319 3.319-3.319 3.319 1.494 3.319 3.319-1.494 3.319-3.319 3.319zM684.004 511.735c0-.25.082-.58.082-.83s0-.58-.082-.83l1.742-1.245c.164-.082.25-.332.082-.58l-1.66-2.904c-.082-.249-.332-.332-.496-.249l-1.994.912a5.262 5.262 0 0 0-1.492-.83l-.248-2.157c0-.25-.166-.415-.416-.415h-3.32c-.248 0-.414.165-.414.415l-.25 2.075c-.58.249-1.078.497-1.492.829l-1.992-.829c-.166-.083-.414 0-.498.165l-1.66 2.904c-.166.25-.166.499.084.582l1.742 1.327c0 .25-.082.58-.082.83s0 .58.082.83l-1.742 1.245c-.166.082-.25.332-.084.58l1.66 2.904c.084.249.332.332.498.249l1.992-.912c.414.333.994.663 1.492.83l.25 2.157c0 .25.166.415.414.415h3.32c.25 0 .416-.165.416-.415l.248-2.157c.58-.25 1.078-.497 1.492-.83l1.994.912c.164.083.414 0 .496-.165l1.66-2.904a.518.518 0 0 0-.082-.582l-1.742-1.327zm-6.143 2.49c-1.824 0-3.318-1.494-3.318-3.319s1.494-3.319 3.318-3.319c1.826 0 3.32 1.494 3.32 3.319s-1.493 3.319-3.32 3.319z"/>
    </g>
    <path fill="#F6F7F9" d="M330.533 464.232c0 8.139-7.5 14.729-16.74 14.729H78.189c-9.234 0-16.734-6.59-16.734-14.729 0-8.141 7.5-14.736 16.734-14.736h235.604c9.24 0 16.74 6.596 16.74 14.736z"/>
    <g fill="#768692">
        <path d="M134.586 465.056c0-.25.082-.58.082-.83s0-.58-.082-.83l1.742-1.245c.164-.082.25-.332.082-.58l-1.66-2.904c-.082-.249-.332-.332-.496-.249l-1.994.912a5.262 5.262 0 0 0-1.492-.83l-.248-2.157c0-.25-.166-.415-.416-.415h-3.32c-.248 0-.414.165-.414.415l-.25 2.075c-.58.249-1.078.497-1.492.829l-1.992-.829c-.166-.083-.414 0-.498.165l-1.66 2.904c-.166.25-.166.499.084.582l1.742 1.327c0 .25-.082.58-.082.83s0 .58.082.83l-1.742 1.245c-.166.082-.25.332-.084.58l1.66 2.904c.084.249.332.332.498.249l1.992-.912c.414.333.994.663 1.492.83l.25 2.157c0 .25.166.415.414.415h3.32c.25 0 .416-.165.416-.415l.248-2.157c.58-.25 1.078-.497 1.492-.83l1.994.912c.164.083.414 0 .496-.165l1.66-2.904a.518.518 0 0 0-.082-.582l-1.742-1.327zm-6.143 2.489c-1.824 0-3.318-1.494-3.318-3.319s1.494-3.319 3.318-3.319c1.826 0 3.32 1.494 3.32 3.319s-1.493 3.319-3.32 3.319zM100.804 465.056c0-.25.082-.58.082-.83s0-.58-.082-.83l1.742-1.245c.165-.082.25-.332.083-.58l-1.66-2.904c-.083-.249-.332-.332-.497-.249l-1.993.912a5.275 5.275 0 0 0-1.492-.83l-.249-2.157c0-.25-.166-.415-.416-.415h-3.319c-.249 0-.415.165-.415.415l-.249 2.075c-.58.249-1.078.497-1.492.829l-1.993-.829c-.165-.083-.414 0-.497.165l-1.66 2.904c-.167.25-.167.499.083.582l1.742 1.327c0 .25-.082.58-.082.83s0 .58.082.83l-1.742 1.245c-.166.082-.25.332-.083.58l1.66 2.904c.083.249.332.332.497.249l1.993-.912c.414.333.994.663 1.492.83l.249 2.157c0 .25.166.415.415.415h3.319c.25 0 .416-.165.416-.415l.249-2.157c.58-.25 1.077-.497 1.492-.83l1.993.912c.165.083.414 0 .497-.165l1.66-2.904a.516.516 0 0 0-.083-.582l-1.742-1.327zm-6.142 2.489c-1.825 0-3.319-1.494-3.319-3.319s1.494-3.319 3.319-3.319 3.319 1.494 3.319 3.319-1.494 3.319-3.319 3.319zM168.367 465.056c0-.25.082-.58.082-.83s0-.58-.082-.83l1.742-1.245c.164-.082.25-.332.082-.58l-1.66-2.904c-.082-.249-.332-.332-.496-.249l-1.994.912a5.262 5.262 0 0 0-1.492-.83l-.248-2.157c0-.25-.166-.415-.416-.415h-3.32c-.248 0-.414.165-.414.415l-.25 2.075c-.58.249-1.078.497-1.492.829l-1.992-.829c-.166-.083-.414 0-.498.165l-1.66 2.904c-.166.25-.166.499.084.582l1.742 1.327c0 .25-.082.58-.082.83s0 .58.082.83l-1.742 1.245c-.166.082-.25.332-.084.58l1.66 2.904c.084.249.332.332.498.249l1.992-.912c.414.333.994.663 1.492.83l.25 2.157c0 .25.166.415.414.415h3.32c.25 0 .416-.165.416-.415l.248-2.157c.58-.25 1.078-.497 1.492-.83l1.994.912c.164.083.414 0 .496-.165l1.66-2.904a.518.518 0 0 0-.082-.582l-1.742-1.327zm-6.142 2.489c-1.824 0-3.318-1.494-3.318-3.319s1.494-3.319 3.318-3.319c1.826 0 3.32 1.494 3.32 3.319s-1.494 3.319-3.32 3.319zM202.148 465.056c0-.25.082-.58.082-.83s0-.58-.082-.83l1.742-1.245c.166-.082.25-.332.084-.58l-1.66-2.904c-.084-.249-.332-.332-.498-.249l-1.992.912a5.289 5.289 0 0 0-1.492-.83l-.25-2.157c0-.25-.166-.415-.416-.415h-3.318c-.25 0-.416.165-.416.415l-.248 2.075c-.58.249-1.078.497-1.492.829l-1.994-.829c-.164-.083-.414 0-.496.165l-1.66 2.904c-.168.25-.168.499.082.582l1.742 1.327c0 .25-.082.58-.082.83s0 .58.082.83l-1.742 1.245c-.166.082-.25.332-.082.58l1.66 2.904c.082.249.332.332.496.249l1.994-.912c.414.333.994.663 1.492.83l.248 2.157c0 .25.166.415.416.415h3.318c.25 0 .416-.165.416-.415l.25-2.157c.58-.25 1.076-.497 1.492-.83l1.992.912c.166.083.414 0 .498-.165l1.66-2.904a.515.515 0 0 0-.084-.582l-1.742-1.327zm-6.14 2.489c-1.826 0-3.32-1.494-3.32-3.319s1.494-3.319 3.32-3.319c1.824 0 3.318 1.494 3.318 3.319s-1.494 3.319-3.318 3.319zM235.93 465.056c0-.25.082-.58.082-.83s0-.58-.082-.83l1.742-1.245c.166-.082.25-.332.084-.58l-1.66-2.904c-.084-.249-.332-.332-.498-.249l-1.992.912a5.289 5.289 0 0 0-1.492-.83l-.25-2.157c0-.25-.166-.415-.416-.415h-3.318c-.25 0-.416.165-.416.415l-.248 2.075c-.58.249-1.078.497-1.492.829l-1.994-.829c-.164-.083-.414 0-.496.165l-1.66 2.904c-.168.25-.168.499.082.582l1.742 1.327c0 .25-.082.58-.082.83s0 .58.082.83l-1.742 1.245c-.166.082-.25.332-.082.58l1.66 2.904c.082.249.332.332.496.249l1.994-.912c.414.333.994.663 1.492.83l.248 2.157c0 .25.166.415.416.415h3.318c.25 0 .416-.165.416-.415l.25-2.157c.58-.25 1.076-.497 1.492-.83l1.992.912c.166.083.414 0 .498-.165l1.66-2.904a.515.515 0 0 0-.084-.582l-1.742-1.327zm-6.141 2.489c-1.826 0-3.32-1.494-3.32-3.319s1.494-3.319 3.32-3.319c1.824 0 3.318 1.494 3.318 3.319s-1.494 3.319-3.318 3.319zM269.713 465.056c0-.25.082-.58.082-.83s0-.58-.082-.83l1.742-1.245c.164-.082.25-.332.082-.58l-1.66-2.904c-.082-.249-.332-.332-.496-.249l-1.994.912a5.262 5.262 0 0 0-1.492-.83l-.248-2.157c0-.25-.166-.415-.416-.415h-3.32c-.248 0-.414.165-.414.415l-.25 2.075c-.58.249-1.078.497-1.492.829l-1.992-.829c-.166-.083-.414 0-.498.165l-1.66 2.904c-.166.25-.166.499.084.582l1.742 1.327c0 .25-.082.58-.082.83s0 .58.082.83l-1.742 1.245c-.166.082-.25.332-.084.58l1.66 2.904c.084.249.332.332.498.249l1.992-.912c.414.333.994.663 1.492.83l.25 2.157c0 .25.166.415.414.415h3.32c.25 0 .416-.165.416-.415l.248-2.157c.58-.25 1.078-.497 1.492-.83l1.994.912c.164.083.414 0 .496-.165l1.66-2.904a.518.518 0 0 0-.082-.582l-1.742-1.327zm-6.143 2.489c-1.824 0-3.318-1.494-3.318-3.319s1.494-3.319 3.318-3.319c1.826 0 3.32 1.494 3.32 3.319s-1.494 3.319-3.32 3.319zM303.494 465.056c0-.25.082-.58.082-.83s0-.58-.082-.83l1.742-1.245c.165-.082.25-.332.083-.58l-1.66-2.904c-.083-.249-.332-.332-.497-.249l-1.993.912a5.275 5.275 0 0 0-1.492-.83l-.249-2.157c0-.25-.166-.415-.416-.415h-3.319c-.249 0-.415.165-.415.415l-.249 2.075c-.58.249-1.078.497-1.492.829l-1.993-.829c-.165-.083-.414 0-.497.165l-1.66 2.904c-.167.25-.167.499.083.582l1.742 1.327c0 .25-.082.58-.082.83s0 .58.082.83l-1.742 1.245c-.166.082-.25.332-.083.58l1.66 2.904c.083.249.332.332.497.249l1.993-.912c.414.333.994.663 1.492.83l.249 2.157c0 .25.166.415.415.415h3.319c.25 0 .416-.165.416-.415l.249-2.157c.58-.25 1.077-.497 1.492-.83l1.993.912c.165.083.414 0 .497-.165l1.66-2.904a.516.516 0 0 0-.083-.582l-1.742-1.327zm-6.141 2.489c-1.825 0-3.319-1.494-3.319-3.319s1.494-3.319 3.319-3.319 3.319 1.494 3.319 3.319-1.494 3.319-3.319 3.319z"/>
    </g>
    <path fill="#009CDE" d="M59.827 464.232c0-9.022 8.235-16.364 18.361-16.364h235.604c10.131 0 18.369 7.342 18.369 16.364 0 9.02-8.238 16.361-18.369 16.361H78.188c-10.126.001-18.361-7.341-18.361-16.361zm18.361-13.104c-8.328 0-15.102 5.879-15.102 13.104s6.773 13.099 15.102 13.099h235.604c8.33 0 15.109-5.874 15.109-13.099 0-7.226-6.779-13.104-15.109-13.104H78.188z"/>
    <path fill="#DFE4E7" d="M420.267 544.537l-1.517-2.235-1.503 2.235-2.197-2.235v32.872h5.217zM415.05 505.804l1.516 2.235 1.503-2.235 2.198 2.235v-32.872h-5.217zM518.018 639.156h136.64v5.217h-136.64z"/>
    <path fill="#DFE4E7" d="M536.523 643.425h5.217v24.933h-5.217zM502.533 581.608h5.217v45.64h-5.217zM474.972 565.468h-44.845c-5.436 0-9.855-4.423-9.855-9.855v-2.859h-5.222v2.859c0 8.312 6.764 15.074 15.077 15.074h44.845v-5.219z"/>
    <path fill="#DFE4E7" d="M596.445 679.451H551.6c-5.436 0-9.855-4.423-9.855-9.855v-2.859h-5.222v2.859c0 8.312 6.764 15.074 15.077 15.074h44.845v-5.219zM347.398 408.966c-8.311 0-15.07-3.76-15.07-12.072v-8.533h5.219v8.533c0 5.434 4.418 6.854 9.852 6.854h7.16v5.219h-7.161z"/>
    <path fill="#DFE4E7" d="M332.328 324.06h5.219v65.301h-5.219z"/>
    <path fill="#DFE4E7" d="M337.547 325.259c0-8.311-6.76-15.07-15.072-15.07h-2.859v5.219h2.859c5.434 0 9.854 4.418 9.854 9.852v2.16h5.219v-2.161z"/>
    <path fill="#DFE4E7" d="M302.828 310.188h18.301v5.219h-18.301z"/>
    <path fill="#D0006F" d="M296.531 304.685h10.971v15.021h-10.971zM350.428 398.449h10.971v15.021h-10.971zM409.811 485.577h15.021v10.971h-15.021zM654.583 634.254h10.971v15.021h-10.971z"/>
    <path fill="#DFE4E7" d="M595.018 679.453h65.64v5.217h-65.64z"/>
    <path fill="#D0006F" d="M654.583 674.551h10.971v15.021h-10.971zM654.583 716.905h10.971v15.021h-10.971z"/>
    <path fill="#DFE4E7" d="M174.214 255.056c0-8.311-6.76-15.07-15.072-15.07h-2.859v5.219h2.859c5.434 0 9.854 4.418 9.854 9.852v2.16h5.219v-2.161z"/>
    <path fill="#DFE4E7" d="M139.495 239.985h18.301v5.219h-18.301zM184.666 309.538h68.549v5.219h-68.549zM507.75 580.521c0-8.311-6.76-15.07-15.072-15.07h-22.859v5.219h22.859c5.434 0 9.854 4.418 9.854 9.852v2.16h5.219v-2.161zM502.533 629.303c0 8.311 6.76 15.07 15.072 15.07h2.859v-5.219h-2.859c-5.434 0-9.854-4.418-9.854-9.852v-2.16h-5.219v2.161z"/>
    <path fill="#DFE4E7" d="M168.995 299.687c0 8.311 6.76 15.07 15.072 15.07h2.859v-5.219h-2.859c-5.434 0-9.854-4.418-9.854-9.852v-2.16h-5.219v2.161z"/>
    <path fill="#139AD6" d="M668.166 158.703h2v185.474h-2z"/>
    <path fill="#DFE4E7" d="M103.844 123.102h5.219v68.301h-5.219zM134.867 60.873h5.219v98.301h-5.219z"/>
    <path fill="#DFE4E7" d="M134.867 62.072c0-8.311 6.76-15.07 15.072-15.07h2.859v5.219h-2.859c-5.434 0-9.854 4.418-9.854 9.852v2.16h-5.219v-2.161z"/>
    <path fill="#DFE4E7" d="M151.285 47.002h18.301v5.219h-18.301zM135.037 81.534h5.219v98.301h-5.219z"/>
    <path fill="#DFE4E7" d="M140.256 82.733c0-8.311-6.76-15.07-15.072-15.07h-2.859v5.219h2.859c5.434 0 9.854 4.418 9.854 9.852v2.16h5.219v-2.161z"/>
    <path fill="#DFE4E7" d="M105.537 67.663h18.301v5.219h-18.301zM162.175 112.146h28.301v5.219h-28.301z"/>
    <path fill="#DFE4E7" d="M163.374 112.146c-8.311 0-15.07 6.76-15.07 15.072v2.859h5.219v-2.859c0-5.434 4.418-9.854 9.852-9.854h2.16v-5.219h-2.161z"/>
    <path fill="#DFE4E7" d="M148.304 128.564h5.219v30.301h-5.219zM73.726 148.88h5.219v38.301h-5.219z"/>
    <path fill="#DFE4E7" d="M78.944 150.079c0-8.311-6.761-15.07-15.073-15.07h-2.858v5.219h2.858c5.434 0 9.854 4.418 9.854 9.852v2.16h5.219v-2.161z"/>
    <path fill="#DFE4E7" d="M44.225 135.009h18.301v5.219H44.225zM74.485 90.74h5.219v88.301h-5.219z"/>
    <path fill="#DFE4E7" d="M79.704 91.939c0-8.311-6.761-15.07-15.073-15.07h-2.858v5.219h2.858c5.434 0 9.854 4.418 9.854 9.852v2.16h5.219v-2.161z"/>
    <path fill="#DFE4E7" d="M44.984 76.869h18.301v5.219H44.984z"/>
    <path fill="#1085B7" d="M389.908 285.975h56.779v159.446h-56.779z"/>
    <path fill="#475058" d="M702.473 584.47l6.365-1.431a4.204 4.204 0 0 1 3.178-5.024 4.208 4.208 0 0 1 5.031 3.181l6.371-1.433-7.553-33.62-6.374 1.434a4.208 4.208 0 0 1-3.204 4.942c-2.232.504-4.453-.889-5-3.103l-6.365 1.436 7.551 33.618z"/>
    <path fill="#D0006F" d="M225.091 304.637h10.972v15.021h-10.972z"/>
    <path fill="#BF0000" d="M260.887 284.543a5.385 5.385 0 0 0 10.769 0v-9.045a5.384 5.384 0 0 0-5.384-5.384 5.386 5.386 0 0 0-5.385 5.384v9.045z"/>
    <path fill="#1085B7" d="M248.739 371.376a5.007 5.007 0 0 0 5.011 5.009h25.046a5.007 5.007 0 0 0 5.011-5.009v-51.713a5.008 5.008 0 0 0-5.011-5.01H253.75a5.008 5.008 0 0 0-5.011 5.01v51.713z"/>
    <path fill="#DFE4E7" d="M247.488 294.086c0-10.375 8.408-18.785 18.786-18.785 10.375 0 18.786 8.41 18.786 18.785v13.778h-37.572v-13.778zM243.729 330.978a3.38 3.38 0 0 0 3.378 3.384h38.322a3.386 3.386 0 0 0 3.39-3.384 3.386 3.386 0 0 0-3.39-3.384h-38.322a3.38 3.38 0 0 0-3.378 3.384zM243.729 342.662a3.38 3.38 0 0 0 3.378 3.382h38.322a3.385 3.385 0 0 0 3.39-3.382 3.389 3.389 0 0 0-3.39-3.388h-38.322a3.383 3.383 0 0 0-3.378 3.388zM243.729 355.96a3.38 3.38 0 0 0 3.378 3.384h38.322a3.386 3.386 0 0 0 3.39-3.384 3.387 3.387 0 0 0-3.39-3.385h-38.322a3.382 3.382 0 0 0-3.378 3.385z"/>
    <path fill="#009CDE" d="M232.576 302.54h67.393v19.214h-67.393z"/>
    <path fill="#139AD6" d="M300.019 321.804h-67.492V302.49h67.492v19.314zm-67.393-.1h67.293V302.59h-67.293v19.114z"/>
    <path fill="#DFE4E7" d="M283.807 367.852l9.392 11.385h-53.853l9.393-11.385z"/>
    <path fill="#009CDE" d="M239.346 379.237H293.2v4.349h-53.854z"/>
    <path fill="#D0006F" d="M131 234.974h10.971v15.021H131z"/>
    <path fill="#DFE4E7" d="M78.174 229.237h56.506v64.362H78.174zM152.515 185.619l-26.951 18.211H86.953l-26.946-18.211z"/>
    <path fill="#768692" d="M86.978 203.83h38.579v2.899H86.978z"/>
    <path fill="#DFE4E7" d="M125.557 206.729l9.123 6.418H78.174l8.804-6.418z"/>
    <path fill="#DFE4E7" d="M78.174 213.147h56.506v4.98H78.174z"/>
    <path fill="#1085B7" d="M73.416 229.11a3.065 3.065 0 0 0 3.064 3.064h59.253a3.064 3.064 0 0 0 3.064-3.064v-7.919c0-1.69-1.37-3.063-3.064-3.063H76.48a3.064 3.064 0 0 0-3.064 3.063v7.919z"/>
    <path fill="#768692" d="M88.48 298.579h35.248v5.874H88.48z"/>
    <path fill="#009CDE" d="M134.68 293.6l-7.375 6.129H85.702l-7.528-6.129z"/>
    <path fill="#DFE4E7" d="M123.729 304.453l9.707 10.218H78.174l10.306-10.218z"/>
    <path fill="#009CDE" d="M73.416 318.246a3.064 3.064 0 0 0 3.064 3.063h59.253a3.063 3.063 0 0 0 3.064-3.063v-.512a3.062 3.062 0 0 0-3.064-3.063H76.48a3.063 3.063 0 0 0-3.064 3.063v.512z"/>
    <path fill="#BBC3C9" d="M64.078 261.153l10.282-8.894 1.31 1.514-10.283 8.894z"/>
    <path fill="#1085B7" d="M64.459 265.674a3.772 3.772 0 0 0 4.029-3.485c.148-2.073-1.417-3.87-3.487-4.021s-3.87 1.402-4.022 3.48c-.16 2.078 1.406 3.874 3.48 4.026z"/>
    <path fill="#768692" d="M73.854 242.892v18.4c-1.242-.391-2.16-1.507-2.16-2.882v-12.638c-.001-1.373.917-2.492 2.16-2.88z"/>
    <path fill="#009CDE" d="M73.676 240.088h4.498v24.009h-4.498z"/>
    <g fill="#1085B7">
        <path d="M100.198 256.908l-1.544 3.336-8.838-4.09 1.543-3.335zM122.397 257.374l-8.838 4.096-1.545-3.333 8.838-4.096zM106.782 271.662l-1.222 9.088-3.647-.49 1.223-9.088z"/>
        <path d="M85.711 262.888c0 11.268 9.137 20.402 20.398 20.402 11.274 0 20.407-9.135 20.407-20.402 0-11.27-9.133-20.402-20.407-20.402-11.261-.001-20.398 9.132-20.398 20.402zm4.885 0c0-8.569 6.949-15.518 15.514-15.518 8.573 0 15.523 6.948 15.523 15.518s-6.95 15.517-15.523 15.517c-8.565-.001-15.514-6.947-15.514-15.517z"/>
    </g>
    <path fill="#1085B7" d="M97.492 262.888a8.619 8.619 0 0 0 8.617 8.62c4.766 0 8.621-3.859 8.621-8.62s-3.855-8.62-8.621-8.62c-4.757 0-8.617 3.859-8.617 8.62z"/>
    <path fill="#C40202" d="M101.802 262.888a4.311 4.311 0 1 0 8.62 0 4.311 4.311 0 0 0-8.62 0z"/>
    <path fill="#768692" d="M60.007 185.619h92.508l6.482-21.033H53.893z"/>
    <path fill="#009CDE" d="M46.25 161.669a6.965 6.965 0 0 0 6.967 6.966h106.09a6.962 6.962 0 0 0 6.965-6.966 6.964 6.964 0 0 0-6.965-6.967H53.217a6.967 6.967 0 0 0-6.967 6.967z"/>
    <path fill="#DFE4E7" d="M417.594 703.444h5.239v13.278h-5.239zM360.4 703.444h5.238v13.278H360.4zM395.71 687.356a2.65 2.65 0 0 0-1.585.959l3.859 2.818c.002-.812-.036-1.753-.168-2.404-.216-1.064-1.155-1.566-2.106-1.373zM394.172 670.94l-.379-1.858-1.239.253zM394.503 672.571l-.331-1.631-.153 1.73z"/>
    <path fill="#DFE4E7" d="M430.721 661.569l-36.928 7.513.379 1.858.331 1.631-.484.099-1.288 14.627.05-.011c.704-1.695 2.197-2.814 3.97-3.174 1.702-.348 3.667.296 4.226 2l.051-.01c.568-2.069 2.478-3.365 4.513-3.779 2.142-.436 4.335.951 4.777 3.125.264 1.295.233 2.814.149 4.047l-.098 7.199-3.731.76-15.553 12.893 2.28 1.684 45.73-9.305c10.344-2.104 17.124-11.709 15.143-21.449l-1.196-5.877c-1.982-9.743-11.978-15.936-22.321-13.831z"/>
    <path fill="#DFE4E7" d="M406.564 686.95c-.217-1.064-1.169-1.564-2.123-1.371-2.593.527-2.647 3.676-2.715 5.743l-.023 2.528 4.934 3.604.066-7.334c.005-.901.038-2.299-.139-3.17z"/>
    <path fill="#009CDE" d="M395.71 687.356c.951-.193 1.89.309 2.106 1.373.132.651.17 1.592.168 2.404l3.719 2.717.023-2.528c.067-2.067.122-5.216 2.715-5.743.954-.193 1.906.307 2.123 1.371.177.871.144 2.269.139 3.17l-.066 7.334 3.731-.76.098-7.199c.084-1.232.114-2.752-.149-4.047-.442-2.174-2.636-3.561-4.777-3.125-2.035.414-3.944 1.71-4.513 3.779l-.051.01c-.559-1.704-2.523-2.348-4.226-2-1.772.359-3.266 1.479-3.97 3.174l-.05.011 1.395 1.019a2.65 2.65 0 0 1 1.585-.96z"/>
    <path fill="#FA3" d="M445.101 700.165l-8.126-5.381-2.121-10.421 8.126 5.381z"/>
    <path fill="#475058" d="M442.98 689.744l-8.126-5.381-2.12-10.421 8.126 5.382zM445.473 701.993a3.45 3.45 0 0 1-2.69 4.062 3.446 3.446 0 0 1-4.062-2.688l-1.746-8.583 8.126 5.381.372 1.828z"/>
    <path fill="#FA3" d="M438.74 668.906l2.12 10.418-8.126-5.382-2.119-10.416z"/>
    <path fill="#475058" d="M435.754 657.91a3.418 3.418 0 0 0-.807-.534c-.65-.307-1.376-.466-2.133-.312a3.445 3.445 0 0 0-2.688 4.062l.489 2.401 8.125 5.38-1.862-9.155c-.153-.757-.588-1.36-1.124-1.842z"/>
    <path fill="#DFE4E7" d="M388.382 694.474l-2.808-5.425-2.097 4.11-3.707-.992 3.336-6.533c.109-.201.229-.432.352-.677l-2.196-4.244c-1.44.656-2.423 2.486-3.13 3.781l-3.254 6.361-3.701-.991 5.976-11.943a30.55 30.55 0 0 0 .721-1.476l3.437.921-.842 1.812 7.681-12.515-4.704-1.261.922-3.439-36.396-9.753c-10.2-2.733-20.554 2.838-23.127 12.44l-1.552 5.794c-2.572 9.6 3.607 19.602 13.808 22.335l32.9 8.816-1.289-2.525 19.67-4.596zm-19.047-5.104c-.664-.04-1.444-.039-2.071-.206-2.511-.673-4.011-2.139-3.28-4.866.297-1.106.8-2.121 1.363-3.179l2.324-4.521-2.669-.715 1.3-2.539 2.67.716 1.409-2.769 4.321-.219-2.031 3.979 3.296.883-1.289 2.541-3.304-.885-3.016 5.833a5.831 5.831 0 0 0-.536 1.341c-.229.856.214 1.52 1.042 1.741.648.174 1.357.227 1.877.161l-1.406 2.704z"/>
    <path fill="#DFE4E7" d="M388.148 666.664l.908-1.479-.731-2.161-3.959-1.06-.922 3.439z"/>
    <path fill="#009CDE" d="M367.822 684.765c.147-.55.358-1.032.536-1.341l3.016-5.833 3.304.885 1.289-2.541-3.296-.883 2.031-3.979-4.321.219-1.409 2.769-2.67-.716-1.3 2.539 2.669.715-2.324 4.521c-.563 1.058-1.066 2.072-1.363 3.179-.73 2.728.77 4.193 3.28 4.866.627.167 1.407.166 2.071.206l1.406-2.703c-.52.065-1.229.013-1.877-.161-.828-.223-1.271-.886-1.042-1.742zM377.873 676.445c-.188.413-.45.961-.721 1.476l-5.976 11.943 3.701.991 3.254-6.361c.707-1.295 1.689-3.125 3.13-3.781l-.794-1.534.842-1.812-3.436-.922zM383.106 685.634l-3.336 6.533 3.707.992 2.097-4.11-2.116-4.092c-.123.245-.242.476-.352.677z"/>
    <path fill="#FA3" d="M337.914 691.641l-4.873-8.444 2.752-10.271 4.874 8.442z"/>
    <path fill="#475058" d="M340.667 681.368l-4.874-8.442 2.753-10.273 4.873 8.445zM337.431 693.442a3.447 3.447 0 0 1-6.657-1.784l2.267-8.461 4.873 8.443-.483 1.802z"/>
    <path fill="#FA3" d="M346.171 660.828l-2.752 10.27-4.873-8.445 2.751-10.266z"/>
    <path fill="#475058" d="M348.403 649.655a3.435 3.435 0 0 0-.484-.84c-.445-.564-1.021-1.029-1.768-1.23a3.445 3.445 0 0 0-4.22 2.435l-.635 2.367 4.874 8.441 2.418-9.024c.2-.745.082-1.481-.185-2.149z"/>
    <path fill="#D0006F" d="M413.762 715.185h12.9v16.079h-12.9zM356.568 715.185h12.901v16.079h-12.901z"/>
    <path fill="#1085B7" d="M701.154 617.814h37.088v4.703h-37.088z"/>
    <path fill="#BBC3C9" d="M743.614 622.518h33.949v35.28h-33.949z"/>
    <path fill="#DDE1E4" d="M662.068 622.518h81.546v35.28h-81.546z"/>
    <g fill="#768692">
        <path d="M670.034 630.247h20.782v3.506h-20.782zM670.034 638.945h20.782v3.507h-20.782zM670.034 646.802h20.782v3.501h-20.782z"/>
    </g>
    <path fill="#BBC3C9" d="M743.614 664.379h33.949v35.274h-33.949z"/>
    <path fill="#DDE1E4" d="M662.068 664.379h81.546v35.274h-81.546z"/>
    <path fill="#768692" d="M670.034 672.109h20.782v3.507h-20.782zM670.034 680.81h20.782v3.504h-20.782zM670.034 688.656h20.782v3.503h-20.782z"/>
    <path fill="#BBC3C9" d="M743.614 706.237h33.949v35.274h-33.949z"/>
    <path fill="#DDE1E4" d="M662.068 706.237h81.546v35.274h-81.546z"/>
    <g fill="#768692">
        <path d="M670.034 713.967h20.782v3.502h-20.782zM670.034 722.664h20.782v3.503h-20.782zM670.034 730.518h20.782v3.503h-20.782z"/>
    </g>
    <g fill="#BF0000">
        <path d="M760.648 649.116c-4.939 0-8.962-4.022-8.962-8.964 0-4.937 4.022-8.952 8.962-8.952s8.96 4.016 8.96 8.952c0 4.942-4.02 8.964-8.96 8.964zm0-15.94c-3.852 0-6.987 3.129-6.987 6.977 0 3.853 3.136 6.988 6.987 6.988s6.987-3.136 6.987-6.988c.001-3.848-3.136-6.977-6.987-6.977z"/>
        <path d="M755.707 633.809l11.275 11.275-1.396 1.396-11.275-11.275zM760.652 690.979a8.907 8.907 0 0 1-6.335-2.624 8.915 8.915 0 0 1-2.628-6.339c0-2.394.935-4.647 2.628-6.339 3.38-3.378 9.283-3.378 12.665.008 3.493 3.491 3.493 9.174.003 12.67a8.904 8.904 0 0 1-6.333 2.624zm-.007-15.95a6.919 6.919 0 0 0-4.932 2.044 6.945 6.945 0 0 0-2.048 4.942 6.96 6.96 0 0 0 2.048 4.944c2.638 2.64 7.242 2.64 9.878 0 2.722-2.726 2.719-7.158-.003-9.881a6.966 6.966 0 0 0-4.943-2.049z"/>
        <path d="M755.71 675.74l11.274 11.283-1.397 1.395-11.274-11.282zM760.648 732.829c-4.939 0-8.959-4.021-8.959-8.96 0-4.94 4.02-8.963 8.959-8.963s8.96 4.022 8.96 8.963c0 4.94-4.02 8.96-8.96 8.96zm0-15.947c-3.852 0-6.983 3.134-6.983 6.987s3.132 6.986 6.983 6.986c3.851 0 6.987-3.134 6.987-6.986.001-3.853-3.136-6.987-6.987-6.987z"/>
        <path d="M754.303 718.93l1.397-1.398 11.276 11.276-1.397 1.397z"/>
    </g>
    <circle fill="#009CDE" cx="43.779" cy="78.954" r="20"/>
    <path fill="#FFF" d="M48.568 65.798H38.99a2.186 2.186 0 0 0-2.188 2.184v21.947c0 1.207.98 2.186 2.188 2.186h9.578a2.186 2.186 0 0 0 2.186-2.186V67.981a2.184 2.184 0 0 0-2.186-2.183zm-6.199 1.445h2.824a.32.32 0 0 1 0 .638h-2.824a.318.318 0 0 1-.32-.319.32.32 0 0 1 .32-.319zm1.408 23.919a.907.907 0 0 1-.906-.909.907.907 0 1 1 1.816 0 .907.907 0 0 1-.91.909zm6.094-2.766H37.688V69.331h12.184v19.065z"/>
    <circle fill="#009CDE" cx="171.71" cy="49.63" r="20"/>
    <path fill="#FFF" d="M183.257 39.767h-23.093c-.627 0-1.134.508-1.134 1.134v14.656c0 .625.507 1.133 1.134 1.133h23.093c.625 0 1.133-.508 1.133-1.133V40.9c0-.626-.508-1.133-1.133-1.133zm-.434 15.426h-22.227v-13.93h22.227v13.93zM168.904 57.374c.133.276.392.472.708.472h4.195c.316 0 .573-.195.707-.472h12.051a2.364 2.364 0 0 1-2.242 1.628h-25.227a2.365 2.365 0 0 1-2.242-1.628h12.05z"/>
    <path fill="#D0006F" d="M672.905 344.177h-7.248c-6.847 0-12.402 5.331-12.873 12.06h32.996c-.47-6.729-6.026-12.06-12.875-12.06z"/>
    <path fill="#DFE4E7" d="M647.968 356.236h42.525v13.873h-42.525z"/>
    <path fill="#D0006F" d="M649.561 427.337h-2.384v10.255h2.384a5.123 5.123 0 0 0 5.127-5.127 5.124 5.124 0 0 0-5.127-5.128z"/>
    <path fill="#009CDE" d="M647.968 390.92l-7.841-6.938-17.191 25.746h12.667z"/>
    <path fill="#DFE4E7" d="M622.936 409.728l17.794 16.327h6.447l-11.574-16.327z"/>
    <path fill="#009CDE" d="M640.73 426.055h6.446v12.818h-6.446z"/>
    <path fill="#1085B7" d="M699.24 379.76c0-5.329-4.322-9.65-9.653-9.65h-39.81c-5.33 0-9.65 4.321-9.65 9.65v4.223h59.113v-4.223z"/>
    <path fill="#009CDE" d="M699.24 388.205c0 5.329-4.322 9.65-9.653 9.65h-39.81c-5.33 0-9.65-4.321-9.65-9.65v-4.223h59.113v4.223z"/>
    <path fill="#DFE4E7" d="M581.662 487.931h-68.69l-57.768-46.51H306.303a7.832 7.832 0 0 0-7.834 7.831v30.842a7.835 7.835 0 0 0 7.834 7.837h129.564l58.506 46.508h87.289a7.835 7.835 0 0 0 7.832-7.832V495.76a7.83 7.83 0 0 0-7.832-7.829z"/>
    <circle fill="#009CDE" cx="199.783" cy="114.588" r="15"/>
    <path fill="#009CDE" d="M89.324 69.001c0 8.285 6.717 15.001 15.002 15.001 8.281 0 14.998-6.716 14.998-15.001s-6.717-14.999-14.998-14.999c-8.285 0-15.002 6.714-15.002 14.999z"/>
    <circle fill="#009CDE" cx="49.469" cy="135.078" r="15"/>
    <path fill="#009CDE" d="M86.453 115.631c0 11.046 8.953 20.002 20.002 20.002 11.047 0 19.998-8.956 19.998-20.002 0-11.045-8.951-20.001-19.998-20.001-11.049 0-20.002 8.956-20.002 20.001z"/>
    <path fill="#FFF" d="M114.805 102.749H98.238c-.883 0-1.6.718-1.6 1.603v22.426a1.6 1.6 0 0 0 1.6 1.601h16.566c.883 0 1.602-.716 1.602-1.601v-22.426c0-.885-.718-1.603-1.601-1.603zm-8.284 24.88a.858.858 0 0 1-.861-.861.862.862 0 1 1 .861.861zm8.004-2.526H98.518v-19.637h16.008v19.637z"/>
    <path fill="#009CDE" d="M158.83 403.825h-6.523a4.204 4.204 0 0 1-4.203 4.204 4.204 4.204 0 0 1-4.209-4.204h-6.529v34.458h6.529a4.21 4.21 0 0 1 4.209-4.122 4.207 4.207 0 0 1 4.199 4.122h6.527v-34.458zM117.518 350.261h-6.523a4.204 4.204 0 0 1-4.201 4.204 4.203 4.203 0 0 1-4.209-4.204h-6.531v34.458h6.531a4.207 4.207 0 0 1 4.209-4.122 4.207 4.207 0 0 1 4.197 4.122h6.527v-34.458zM217.439 403.825h-6.521a4.204 4.204 0 0 1-4.201 4.204 4.205 4.205 0 0 1-4.211-4.204h-6.529v34.458h6.529a4.21 4.21 0 0 1 4.211-4.122c2.291 0 4.148 1.844 4.195 4.122h6.527v-34.458zM276.047 403.825h-6.521a4.204 4.204 0 0 1-4.201 4.204 4.205 4.205 0 0 1-4.211-4.204h-6.529v34.458h6.529a4.21 4.21 0 0 1 4.211-4.122c2.291 0 4.148 1.844 4.195 4.122h6.527v-34.458zM77.691 375.051a1 1 0 0 1-1-1v-36.75a1 1 0 1 1 2 0v36.75a1 1 0 0 1-1 1z"/>
    <path fill="#BBC3C9" d="M82.162 358.304a1 1 0 0 1-1-1v-29.925a1 1 0 1 1 2 0v29.925a1 1 0 0 1-1 1zM88.48 389.676a1 1 0 0 1-1-1v-27.585a1 1 0 1 1 2 0v27.585a1 1 0 0 1-1 1zM132.557 355.376a1 1 0 0 1-1-1v-27.582a1 1 0 1 1 2 0v27.582a1 1 0 0 1-1 1z"/>
    <path fill="#009CDE" d="M128.115 362.168a1 1 0 0 1-1-1v-17.493a1 1 0 1 1 2 0v17.493a1 1 0 0 1-1 1z"/>
    <path fill="#BBC3C9" d="M123.69 366.66a1 1 0 0 1-1-1v-27.581a1 1 0 1 1 2 0v27.581a1 1 0 0 1-1 1z"/>
    <path fill="#DFE4E7" d="M233.936 689.018l35.798-11.473-29.959-24.767 29.44-25.382-36.031-10.729 17.201-33.426-38.697 3.673 2.867-38.765-33.061 17.89-11.473-35.798-24.766 29.96-25.383-29.438-10.727 36.028-33.428-17.202 3.672 38.699-38.764-2.867 17.891 33.06-35.799 11.473 29.96 24.768-29.439 25.383 36.028 10.727-17.2 33.425 38.698-3.671-2.868 38.767 33.062-17.892 11.474 35.798 24.765-29.959 25.385 29.438 10.727-36.029 33.425 17.2-3.672-38.697 38.764 2.868z"/>
    <path fill="#475058" d="M99.979 694.518a6.607 6.607 0 0 1-6.61-6.605v-68.321a6.612 6.612 0 0 1 6.61-6.608h92.495a6.614 6.614 0 0 1 6.608 6.608v68.321a6.608 6.608 0 0 1-6.608 6.605H99.979z"/>
    <path fill="#F6F7F9" d="M104.609 618.892h85.535v69.719h-85.535z"/>
    <path fill="#DFE4E7" d="M98.995 656.496a2.75 2.75 0 0 1 0-5.5 2.755 2.755 0 0 1 2.76 2.754 2.752 2.752 0 0 1-2.76 2.746z"/>
    <path fill="#BF0000" d="M243.271 212.153c-22.794 0-41.338-15.576-41.338-34.722 0-.076.002-.151.004-.227l-19.672-25.732c-.242-.318-.272-.75-.076-1.099s.575-.546.98-.503l30.476 3.354c7.853-6.784 18.354-10.515 29.626-10.515 22.793 0 41.337 15.576 41.337 34.722s-18.544 34.722-41.337 34.722zm-57.997-60.038l18.47 24.159a1 1 0 0 1 .205.623l-.008.263c-.004.09-.008.181-.008.271 0 18.043 17.646 32.722 39.338 32.722 21.69 0 39.337-14.679 39.337-32.722s-17.646-32.722-39.337-32.722c-10.944 0-21.114 3.66-28.637 10.306a.992.992 0 0 1-.771.245l-28.589-3.145zM312.816 624.181c-11.296 0-21.819-3.747-29.677-10.559l-25.479-.155a1 1 0 0 1-.829-1.55l14.653-22.192c-.003-.088-.006-.176-.006-.265 0-19.146 18.544-34.722 41.338-34.722 22.793 0 41.337 15.576 41.337 34.722s-18.544 34.721-41.337 34.721zm-53.298-12.702l24.006.146c.242.002.475.091.656.251 7.522 6.646 17.692 10.306 28.637 10.306 21.69 0 39.337-14.679 39.337-32.722s-17.646-32.722-39.337-32.722c-21.691 0-39.338 14.679-39.338 32.722 0 .091.004.182.008.271l.008.263c.003.201-.055.398-.165.566l-13.812 20.919z"/>
    <circle fill="#009CDE" cx="307.502" cy="449.496" r="3.498"/>
    <circle fill="#009CDE" cx="307.502" cy="478.955" r="3.498"/>
    <g fill="#009CDE">
        <circle cx="581.079" cy="496.182" r="3.498"/>
        <circle cx="581.079" cy="525.641" r="3.498"/>
    </g>
    <g fill="#FFF">
        <path d="M56.76 134.529v-7.754l-8.906 1.3v6.454zM47.227 128.166l-6.467.944v5.419h6.467zM40.76 135.156v5.489l6.467.954v-6.443zM47.854 141.691l8.906 1.315v-7.85h-8.906z"/>
    </g>
    <path fill-rule="evenodd" clip-rule="evenodd" fill="#FFF" d="M104.324 60.064a6.41 6.41 0 0 1 2.317.425l1.036-1.597a.185.185 0 0 1 .256-.054c.086.056.111.17.055.256l-1 1.541c1.655.765 2.783 2.219 2.815 3.893h-10.96c.033-1.674 1.16-3.128 2.816-3.893l-1-1.541a.184.184 0 0 1 .054-.256.185.185 0 0 1 .257.054l1.036 1.597a6.44 6.44 0 0 1 2.318-.425zm-.999 15.165v2.735c0 .677-.554 1.23-1.23 1.23a1.234 1.234 0 0 1-1.231-1.23v-2.735h-1.031a.998.998 0 0 1-.996-.996v-8.967h10.977v8.967a.999.999 0 0 1-.996.996h-1.032v2.735c0 .677-.554 1.23-1.23 1.23-.677 0-1.23-.554-1.23-1.23v-2.735h-2.001zm-6.479-9.92c.677 0 1.23.554 1.23 1.231v4.922c0 .677-.554 1.23-1.23 1.23-.677 0-1.23-.554-1.23-1.23V66.54a1.233 1.233 0 0 1 1.23-1.231zm14.957 0c.677 0 1.23.554 1.23 1.231v4.922c0 .677-.554 1.23-1.23 1.23-.678 0-1.23-.554-1.23-1.23V66.54a1.232 1.232 0 0 1 1.23-1.231zm-9.848-3.579a.63.63 0 1 1 0 1.262.63.63 0 0 1 0-1.262zm4.738 0a.63.63 0 1 1 0 1.26.63.63 0 0 1 0-1.26z"/>
    <g fill-rule="evenodd" clip-rule="evenodd" fill="#FFF">
        <path d="M205.146 114.203c-.023-2.484 2.03-3.683 2.122-3.739-1.152-1.69-2.951-1.922-3.592-1.949-1.531-.153-2.986.902-3.763.902-.774 0-1.975-.879-3.241-.854-1.67.023-3.207.968-4.066 2.463-1.732 3.007-.443 7.459 1.246 9.899.824 1.19 1.809 2.534 3.102 2.486 1.246-.05 1.715-.803 3.219-.803 1.503 0 1.926.803 3.244.777 1.338-.024 2.188-1.216 3.007-2.412.947-1.386 1.338-2.728 1.36-2.797-.03-.008-2.61-.999-2.638-3.973zM202.674 106.902c.686-.832 1.146-1.987 1.021-3.139-.988.04-2.188.66-2.896 1.489-.636.736-1.193 1.912-1.041 3.04 1.102.087 2.228-.56 2.916-1.39z"/>
    </g>
    <path fill="#DFE4E7" d="M436.101 199.47a3.96 3.96 0 0 1-3.962 3.962h-27.682a3.962 3.962 0 0 1-3.963-3.962v-17.375a3.962 3.962 0 0 1 3.963-3.964h27.682a3.961 3.961 0 0 1 3.962 3.964v17.375z"/>
    <path fill="#D0006F" d="M446.688 225.966a6.32 6.32 0 0 1-6.318 6.319h-44.143a6.319 6.319 0 0 1-6.318-6.319v-27.707a6.316 6.316 0 0 1 6.318-6.317h44.143a6.317 6.317 0 0 1 6.318 6.317v27.707z"/>
    <path fill="#475058" d="M371.09 375.59a6.669 6.669 0 0 0 6.67 6.666h81.078a6.668 6.668 0 0 0 6.668-6.666v-60.54a6.663 6.663 0 0 0-6.668-6.665H377.76a6.663 6.663 0 0 0-6.67 6.665v60.54z"/>
    <path fill="#F6F7F9" d="M377.822 315.74h80.945v59.143h-80.945z"/>
    <path fill="#211F1F" d="M386.539 349.87l.081.035-.062-.063-.019.028M386.539 349.828l.019.014.023-.052-.042.038M397.289 351.939c.018.035.031.082.055.126.016-.015.037-.023.055-.036a.987.987 0 0 1-.11-.09"/>
    <path fill="#DFE4E7" d="M357.913 413.402a6.996 6.996 0 0 0 7.007 6.998h106.762c3.868 0 7-3.126 7-6.998v-14.876a6.995 6.995 0 0 0-7-7.001H364.92a6.999 6.999 0 0 0-7.007 7.001v14.876z"/>
    <path fill="#BF0000" d="M460.399 405.961a4.383 4.383 0 0 0 4.376 4.376 4.384 4.384 0 0 0 4.377-4.376 4.375 4.375 0 0 0-4.377-4.373 4.373 4.373 0 0 0-4.376 4.373zM443.48 405.961a4.385 4.385 0 0 0 4.373 4.376 4.376 4.376 0 0 0 4.376-4.376 4.366 4.366 0 0 0-4.376-4.373 4.375 4.375 0 0 0-4.373 4.373z"/>
    <path fill="#009CDE" d="M367.451 398.959h49.881v14.002h-49.881z"/>
    <path fill="#FFF" d="M372.047 402.464h7.003v7h-7.003zM383.283 402.464h6.998v7h-6.998zM394.512 402.464h7.004v7h-7.004zM405.75 402.464h6.994v7h-6.994z"/>
    <path fill="#DFE4E7" d="M461.19 274.929l-14.502 11.046h-56.78l-14.503-11.046zM461.19 231.868l-14.502-20.073h-56.78l-14.503 20.073z"/>
    <path fill="#768692" d="M375.405 231.868h85.785v43.061h-85.785z"/>
    <path fill="#009CDE" d="M467.521 263.462a4.514 4.514 0 0 1-4.515 4.514h-89.418a4.514 4.514 0 0 1-4.513-4.514v-12.785a4.514 4.514 0 0 1 4.513-4.514h89.418a4.514 4.514 0 0 1 4.515 4.514v12.785z"/>
    <path fill="#BF0000" d="M426.568 405.961a4.378 4.378 0 0 0 4.373 4.376 4.379 4.379 0 0 0 4.375-4.376 4.37 4.37 0 0 0-4.375-4.373 4.369 4.369 0 0 0-4.373 4.373z"/>
    <circle fill="#009CDE" cx="266.272" cy="289.942" r="9.114"/>
    <path fill="#FFF" d="M265.257 295.071l-4.75-4.652 2.06-2.025 2.69 2.654 5.692-5.574 2.076 2.017-7.768 7.58"/>
    <path fill="#BBC3C9" d="M764.168 600.982l-25.906 17.511h-37.123l-25.907-17.511z"/>
    <path fill="#009CDE" d="M667.1 599.75c0 2.227 1.8 4.03 4.031 4.03h97.139a4.028 4.028 0 0 0 4.03-4.03 4.028 4.028 0 0 0-4.03-4.028h-97.139a4.026 4.026 0 0 0-4.031 4.028z"/>
    <path fill="#DFE4E7" d="M640.112 449.809h-6.521a4.207 4.207 0 1 1-8.414 0h-6.529v34.458h6.529a4.212 4.212 0 0 1 4.212-4.122c2.29 0 4.149 1.844 4.196 4.122h6.527v-34.458z"/>
    <circle fill="#475058" cx="629.38" cy="467.038" r="8.591"/>
    <path fill="#FFF" d="M629.669 461.375h-.578c-2.728 0-5.229 1.742-5.229 4.646 0 2.032.871 2.613.871 2.613.09.09.188.175.292.257v.614c0 1.162 1.741 1.451 1.741 1.451v1.453c0 .16.129.29.291.29h4.645a.29.29 0 0 0 .291-.29v-1.453s1.741-.289 1.741-1.451v-.614c.104-.082.202-.167.292-.257 0 0 .871-.871.871-2.613 0-2.904-2.501-4.646-5.228-4.646zm-2.832 8.027c-.368-.14-.783-.649-.415-1.756.229-.741.924-1.111 1.711-.833.648.231.878 1.063.692 1.616-.277.879-1.062 1.248-1.988.973zm3.142 1.94c-.321 0-.553-.555-.599-.786 0 .277-.229.786-.599.786-.233 0-.417-.14-.417-.416 0-.556.646-1.618 1.016-1.709.37.139 1.016 1.153 1.016 1.709 0 .276-.184.416-.417.416zm1.944-1.94c-.926.274-1.711-.095-1.988-.973-.185-.6.044-1.432.692-1.616.738-.229 1.481.092 1.711.833.368 1.107 0 1.617-.415 1.756z"/>
    <path fill="#DFE4E7" d="M578.504 449.809h-6.521a4.207 4.207 0 1 1-8.414 0h-6.529v34.458h6.529a4.212 4.212 0 0 1 4.212-4.122c2.29 0 4.149 1.844 4.196 4.122h6.527v-34.458z"/>
    <circle fill="#475058" cx="567.772" cy="467.038" r="8.591"/>
    <path fill="#FFF" d="M568.061 461.375h-.578c-2.728 0-5.229 1.742-5.229 4.646 0 2.032.871 2.613.871 2.613.09.09.188.175.292.257v.614c0 1.162 1.741 1.451 1.741 1.451v1.453c0 .16.129.29.291.29h4.645a.29.29 0 0 0 .291-.29v-1.453s1.741-.289 1.741-1.451v-.614c.104-.082.202-.167.292-.257 0 0 .871-.871.871-2.613 0-2.904-2.501-4.646-5.228-4.646zm-2.832 8.027c-.368-.14-.783-.649-.415-1.756.229-.741.924-1.111 1.711-.833.648.231.878 1.063.692 1.616-.278.879-1.063 1.248-1.988.973zm3.141 1.94c-.321 0-.553-.555-.599-.786 0 .277-.229.786-.599.786-.233 0-.417-.14-.417-.416 0-.556.646-1.618 1.016-1.709.37.139 1.016 1.153 1.016 1.709 0 .276-.183.416-.417.416zm1.944-1.94c-.926.274-1.711-.095-1.988-.973-.185-.6.044-1.432.692-1.616.738-.229 1.481.092 1.711.833.369 1.107 0 1.617-.415 1.756z"/>
    <path fill="#DFE4E7" d="M520.359 449.809h-6.521a4.207 4.207 0 1 1-8.414 0h-6.529v34.458h6.529a4.212 4.212 0 0 1 4.212-4.122c2.29 0 4.149 1.844 4.196 4.122h6.527v-34.458z"/>
    <circle fill="#475058" cx="509.627" cy="467.038" r="8.591"/>
    <path fill="#FFF" d="M509.916 461.375h-.578c-2.728 0-5.229 1.742-5.229 4.646 0 2.032.871 2.613.871 2.613.09.09.188.175.292.257v.614c0 1.162 1.741 1.451 1.741 1.451v1.453c0 .16.129.29.291.29h4.645a.29.29 0 0 0 .291-.29v-1.453s1.741-.289 1.741-1.451v-.614c.104-.082.202-.167.292-.257 0 0 .871-.871.871-2.613.001-2.904-2.5-4.646-5.228-4.646zm-2.832 8.027c-.368-.14-.783-.649-.415-1.756.229-.741.924-1.111 1.711-.833.648.231.878 1.063.692 1.616-.277.879-1.062 1.248-1.988.973zm3.142 1.94c-.321 0-.553-.555-.599-.786 0 .277-.229.786-.599.786-.233 0-.417-.14-.417-.416 0-.556.646-1.618 1.016-1.709.37.139 1.016 1.153 1.016 1.709 0 .276-.184.416-.417.416zm1.944-1.94c-.926.274-1.711-.095-1.988-.973-.185-.6.044-1.432.692-1.616.738-.229 1.481.092 1.711.833.368 1.107 0 1.617-.415 1.756z"/>
    <path fill="#DFE4E7" d="M735.25 465.664l-5.609-3.326a4.207 4.207 0 0 1-7.238-4.291l-5.616-3.331-17.572 29.642 5.617 3.329a4.211 4.211 0 0 1 5.725-1.397c1.97 1.168 2.628 3.703 1.508 5.686l5.614 3.329 17.571-29.641z"/>
    <circle fill="#475058" cx="717.231" cy="475.011" r="8.592"/>
    <path fill="#FFF" d="M720.369 470.287l-.499-.295c-2.345-1.391-5.386-1.169-6.866 1.33-1.037 1.748-.582 2.692-.582 2.692.031.122.071.246.12.37l-.314.528c-.592.999.757 2.135.757 2.135l-.74 1.251a.289.289 0 0 0 .103.398l3.994 2.368a.292.292 0 0 0 .399-.101l.741-1.251s1.646.639 2.237-.359l.314-.529c.13-.017.259-.04.382-.072 0 0 1.193-.306 2.081-1.803 1.481-2.499.219-5.271-2.127-6.662zm-6.531 5.461c-.245-.309-.342-.959.539-1.722.575-.521 1.36-.486 1.896.155.44.529.214 1.362-.228 1.743-.686.614-1.55.531-2.207-.176zm1.714 3.27c-.275-.163-.191-.758-.113-.981-.142.238-.598.559-.917.371-.199-.118-.287-.333-.146-.57.283-.479 1.381-1.062 1.746-.952.248.309.285 1.511.001 1.988-.142.236-.37.263-.571.144zm2.661-.676c-.936-.236-1.423-.955-1.214-1.852.146-.608.768-1.209 1.42-1.036.752.178 1.228.833 1.047 1.589-.248 1.139-.825 1.389-1.253 1.299z"/>
    <path fill="#DFE4E7" d="M748.328 541.438l2.826-5.877a4.208 4.208 0 0 1 3.645-7.584l2.831-5.885-31.058-14.93-2.828 5.886a4.212 4.212 0 0 1 1.89 5.581c-.992 2.064-3.461 2.94-5.532 1.996l-2.829 5.884 31.055 14.929z"/>
    <circle fill="#475058" cx="737.45" cy="524.3" r="8.592"/>
    <path fill="#FFF" d="M742.43 527.015l.25-.522c1.182-2.457.696-5.467-1.922-6.725-1.831-.881-2.733-.346-2.733-.346a3.493 3.493 0 0 0-.357.151l-.554-.267c-1.047-.503-2.062.939-2.062.939l-1.31-.629a.29.29 0 0 0-.389.137l-2.012 4.185a.293.293 0 0 0 .135.39l1.311.629s-.493 1.695.553 2.198l.555.267c.027.129.062.254.105.375 0 0 .407 1.161 1.977 1.916 2.619 1.258 5.271-.24 6.453-2.698zm-6.009-6.033c.287-.271.926-.423 1.762.388.57.528.604 1.313.011 1.902-.489.484-1.339.331-1.756-.075-.671-.629-.664-1.498-.017-2.215zm-3.108 1.993c.139-.288.738-.256.968-.198-.25-.12-.608-.546-.45-.881.102-.209.308-.315.556-.196.501.24 1.179 1.283 1.101 1.657-.285.274-1.48.416-1.98.174-.25-.121-.296-.345-.195-.556zm.905 2.592c.154-.953.827-1.501 1.739-1.371.619.094 1.271.66 1.155 1.325-.111.765-.724 1.295-1.492 1.181-1.156-.147-1.455-.701-1.402-1.135z"/>
    <g fill="#BF0000">
        <path d="M222.963 164.376l.026-.062h.993l.026.062c.041.094.062.298.062.61 0 .314-.018.553-.053.717-.012.059-.018.097-.018.114s.006.056.018.114c.029.152.044.366.044.642s-.015.486-.044.633a.677.677 0 0 0 0 .22c.029.152.044.366.044.642s-.015.486-.044.633a.733.733 0 0 0 0 .229c.035.17.051.424.049.761-.004.337-.025.537-.066.602-.006.006-.008.02-.004.039a.427.427 0 0 0 .013.066c.047.146.067.404.062.773s-.032.577-.079.624c-.012.012-.185.018-.519.018l-.501-.009-.018-.07c-.041-.152-.061-.385-.058-.699.003-.312.025-.528.066-.646l.018-.07-.255-.009h-.246l-.026-.07c-.041-.152-.061-.387-.057-.703.002-.316.024-.533.065-.65a.313.313 0 0 0 0-.149 2.974 2.974 0 0 1-.062-.698c0-.309.021-.523.062-.646a.35.35 0 0 0 0-.158c-.076-.275-.091-.633-.044-1.072.018-.176.038-.277.062-.303.023-.027.108-.04.255-.04h.246l-.018-.079c-.041-.164-.062-.404-.062-.721s.022-.534.063-.645zm1.002-1.503l.018-.053h1.002c.662 0 .999.006 1.011.018.029.053.051.225.065.514.015.291.011.509-.013.655a.558.558 0 0 0-.018.093.815.815 0 0 0-.009.083c-.012.064-.023.103-.035.114s-.349.018-1.011.018l-1.002-.009-.018-.07c-.041-.152-.061-.392-.058-.716.004-.327.027-.541.068-.647zm0 9l.018-.053h2.004l.018.053c.047.117.067.372.062.765s-.032.612-.079.659c-.012.012-.349.018-1.011.018l-1.002-.009-.018-.07c-.041-.152-.061-.392-.058-.716.002-.327.025-.541.066-.647zm1.995-7.497l.026-.062h.501c.322 0 .492.009.51.026.035.059.059.23.07.515s.006.508-.018.672c-.029.17-.047.261-.053.272-.012.012.067.018.237.018.164 0 .252.006.264.018.029.053.051.224.066.515.014.289.01.508-.014.654a.886.886 0 0 0-.027.176.707.707 0 0 0-.009.246c.035.158.051.372.049.642-.004.27-.02.48-.049.633a.733.733 0 0 0 0 .229c.041.176.059.433.053.769-.006.338-.029.538-.07.603-.012.012-.1.018-.264.018h-.246l.026.079c.041.152.059.412.053.777-.006.367-.032.573-.079.62-.012.012-.185.018-.519.018l-.492-.009-.018-.07c-.041-.152-.062-.385-.062-.699 0-.312.021-.528.062-.646a.313.313 0 0 0 0-.149c-.041-.158-.062-.393-.062-.703s.021-.527.062-.65a.313.313 0 0 0 0-.149 2.974 2.974 0 0 1-.062-.698c0-.309.021-.523.062-.646a.35.35 0 0 0 0-.158 2.972 2.972 0 0 1-.062-.699c0-.307.021-.522.062-.646a.313.313 0 0 0 0-.149c-.041-.164-.062-.404-.062-.721s.024-.535.065-.646zM231.901 162.873l.018-.053h.747c.498 0 .753.006.765.018a.363.363 0 0 1 .026.105c.076.422.076.841 0 1.257a.732.732 0 0 0 0 .229c.029.152.044.364.044.638 0 .271-.015.484-.044.637a.733.733 0 0 0 0 .229c.029.152.044.366.044.642s-.015.486-.044.633a.677.677 0 0 0 0 .22c.035.17.05.424.044.76-.006.338-.029.538-.07.603-.012.012-.006.047.018.105.041.141.059.392.053.751-.006.361-.029.576-.07.646-.012.012-.006.047.018.105.041.146.059.398.053.756s-.029.571-.07.642l.035.009.105.004a4.922 4.922 0 0 0 .365.014h.232c.498 0 .753.006.765.018.035.059.059.231.07.519s.006.513-.018.677c-.029.164-.05.252-.062.264s-.768.018-2.268.018l-2.25-.009-.018-.07c-.041-.152-.061-.392-.057-.716.002-.326.024-.541.065-.646l.026-.053h1.494l-.026-.088a2.972 2.972 0 0 1-.062-.699c0-.307.021-.522.062-.646a.313.313 0 0 0 0-.149c-.041-.158-.062-.393-.062-.703s.021-.527.062-.65a.313.313 0 0 0 0-.149 2.974 2.974 0 0 1-.062-.698c0-.309.021-.523.062-.646a.35.35 0 0 0 0-.158 2.972 2.972 0 0 1-.062-.699c0-.307.021-.522.062-.646l.026-.07-.501-.009h-.51l-.018-.07c-.041-.152-.061-.391-.058-.717.003-.324.025-.54.066-.646l.018-.062h1.002l-.026-.079c-.041-.158-.061-.396-.058-.716s.028-.541.069-.652zM239.381 162.873l.018-.053h.747c.498 0 .753.006.765.018a.363.363 0 0 1 .026.105c.076.422.076.841 0 1.257a.732.732 0 0 0 0 .229c.029.152.044.364.044.638 0 .271-.015.484-.044.637a.733.733 0 0 0 0 .229c.029.152.044.366.044.642s-.015.486-.044.633a.677.677 0 0 0 0 .22c.035.17.05.424.044.76-.006.338-.029.538-.07.603-.012.012-.006.047.018.105.041.141.059.392.053.751-.006.361-.029.576-.07.646-.012.012-.006.047.018.105.041.146.059.398.053.756s-.029.571-.07.642l.035.009.105.004a4.922 4.922 0 0 0 .365.014h.232c.498 0 .753.006.765.018.035.059.059.231.07.519s.006.513-.018.677c-.029.164-.05.252-.062.264s-.768.018-2.268.018l-2.25-.009-.018-.07c-.041-.152-.061-.392-.057-.716.002-.326.024-.541.065-.646l.026-.053h1.494l-.026-.088a2.972 2.972 0 0 1-.062-.699c0-.307.021-.522.062-.646a.313.313 0 0 0 0-.149c-.041-.158-.062-.393-.062-.703s.021-.527.062-.65a.313.313 0 0 0 0-.149 2.974 2.974 0 0 1-.062-.698c0-.309.021-.523.062-.646a.35.35 0 0 0 0-.158 2.972 2.972 0 0 1-.062-.699c0-.307.021-.522.062-.646l.026-.07-.501-.009h-.51l-.018-.07c-.041-.152-.061-.391-.058-.717.003-.324.025-.54.066-.646l.018-.062h1.002l-.026-.079c-.041-.158-.061-.396-.058-.716s.028-.541.069-.652zM246.86 162.873l.018-.053h.747c.498 0 .753.006.765.018a.363.363 0 0 1 .026.105c.076.422.076.841 0 1.257a.732.732 0 0 0 0 .229c.029.152.044.364.044.638 0 .271-.015.484-.044.637a.733.733 0 0 0 0 .229c.029.152.044.366.044.642s-.015.486-.044.633a.677.677 0 0 0 0 .22c.035.17.05.424.044.76-.006.338-.029.538-.07.603-.012.012-.006.047.018.105.041.152.059.413.053.782s-.032.577-.079.624c-.006.006-.261.009-.765.009h-.747l-.018-.07c-.041-.152-.062-.387-.062-.703s.021-.533.062-.65a.313.313 0 0 0 0-.149 2.974 2.974 0 0 1-.062-.698c0-.309.021-.523.062-.646a.35.35 0 0 0 0-.158 2.972 2.972 0 0 1-.062-.699c0-.307.021-.522.062-.646a.313.313 0 0 0 0-.149c-.041-.158-.062-.393-.062-.703s.021-.527.062-.65a.313.313 0 0 0 0-.149c-.041-.158-.061-.396-.058-.716s.025-.541.066-.652zm0 9l.018-.053h.747c.498 0 .753.006.765.018.029.053.051.225.066.514.014.291.01.509-.014.655a.558.558 0 0 0-.018.093.815.815 0 0 0-.009.083c-.012.064-.023.103-.035.114s-.267.018-.765.018l-.747-.009-.018-.07c-.041-.152-.061-.392-.058-.716.005-.327.027-.541.068-.647zM253.391 161.37l.018-.053h1.749c1.166 0 1.755.006 1.767.018.035.059.059.231.07.519s.006.513-.018.677a2.682 2.682 0 0 1-.053.264l.211.026h.026c.164 0 .252.006.264.018.035.059.059.231.07.519s.006.513-.018.677a2.682 2.682 0 0 1-.053.264c-.012.012.067.018.237.018.158 0 .246.009.264.026a.363.363 0 0 1 .026.105c.076.404.073.823-.009 1.257a.732.732 0 0 0 0 .229c.029.152.044.366.044.642s-.015.486-.044.633a.677.677 0 0 0 0 .22c.035.17.051.425.049.765-.004.34-.025.542-.066.606-.012.012-.1.018-.264.018h-.246l.018.079c.041.152.06.413.057.782s-.027.577-.074.624c-.006.006-.428.009-1.266.009h-1.248l-.018-.07c-.041-.152-.062-.387-.062-.703s.021-.533.062-.65l.026-.062-.255-.009-.255-.009-.018-.07c-.041-.146-.062-.378-.062-.694s.021-.533.062-.65a.35.35 0 0 0 0-.158 2.972 2.972 0 0 1-.062-.699c0-.307.021-.522.062-.646a.313.313 0 0 0 0-.149c-.041-.158-.061-.396-.058-.717.003-.318.025-.534.066-.646l.018-.062h1.494l-.018-.079a2.974 2.974 0 0 1-.062-.698c0-.309.021-.523.062-.646l.026-.07H254.468c-.065 0-.126.002-.185.004a2.223 2.223 0 0 1-.154.005h-.118a.258.258 0 0 0-.079.009h-.018c.053.094.079.334.079.721 0 .398-.026.645-.079.738-.012.012-.097.018-.255.018s-.237.009-.237.026c.041.064.062.266.066.603a3.96 3.96 0 0 1-.049.76.733.733 0 0 0 0 .229c.029.152.044.366.044.642s-.015.486-.044.633a.677.677 0 0 0 0 .22c.035.17.051.424.049.76-.004.338-.025.538-.066.603-.006.006-.008.02-.004.04a.415.415 0 0 0 .013.065c.041.146.06.399.058.761-.004.359-.025.575-.066.646-.012.012.067.018.237.018.123 0 .196.003.22.009s.041.023.053.053c.029.076.049.248.057.514.01.268.002.479-.021.638s-.041.246-.053.264c-.006.006.067.011.22.013a81.826 81.826 0 0 0 1.52.014c1.166 0 1.755.006 1.767.018.029.053.051.225.065.514.015.291.011.509-.013.655a.558.558 0 0 0-.018.093.815.815 0 0 0-.009.083c-.012.064-.023.103-.035.114s-.683.018-2.013.018l-2.004-.009-.018-.07c-.041-.152-.061-.387-.058-.703s.025-.533.066-.65l.018-.062-.501-.009-.501-.009-.026-.07c-.041-.152-.061-.385-.058-.699.003-.312.025-.528.066-.646l.018-.07-.246-.009h-.255l-.018-.07c-.041-.152-.062-.387-.062-.703s.021-.533.062-.65a.313.313 0 0 0 0-.149 2.974 2.974 0 0 1-.062-.698c0-.309.021-.523.062-.646a.35.35 0 0 0 0-.158 2.972 2.972 0 0 1-.062-.699c0-.307.021-.522.062-.646a.313.313 0 0 0 0-.149c-.076-.275-.091-.636-.044-1.081.018-.176.038-.276.062-.304.023-.025.108-.039.255-.039h.246l-.018-.079c-.041-.164-.062-.404-.062-.721s.021-.53.062-.642l.026-.053h.993l-.026-.088c-.041-.158-.061-.396-.058-.717.008-.331.031-.547.072-.658zm2.997 4.518l.018-.07h-.645c-.051 0-.096.002-.137.005s-.078.004-.109.004h-.066l-.026.009c.041.064.064.267.07.606s-.009.595-.044.765a.677.677 0 0 0 0 .22c.041.176.059.433.053.77s-.032.537-.079.602h.062c.041.006.1.011.176.014s.158.004.246.004h.501l-.018-.079a2.974 2.974 0 0 1-.062-.698c0-.309.021-.523.062-.646a.35.35 0 0 0 0-.158 2.972 2.972 0 0 1-.062-.699c-.002-.31.019-.526.06-.649zM259.886 162.873l.026-.053h.747c.492 0 .744.006.756.018.029.053.053.225.07.514.018.291.015.509-.009.655a.886.886 0 0 0-.027.167.572.572 0 0 1-.026.123c-.012.012.064.018.229.018.158 0 .246.009.264.026.029.053.053.224.07.515.018.289.015.508-.009.654a1.353 1.353 0 0 0-.027.167.514.514 0 0 1-.026.114c-.018.018-.108.026-.272.026-.17 0-.249.006-.237.018.047.076.07.327.07.751 0 .426-.023.661-.07.708-.012.012-.267.018-.765.018l-.747-.009-.026-.07c-.041-.152-.061-.385-.058-.699.003-.312.025-.528.066-.646l.018-.07-.246-.009h-.255l-.018-.07c-.076-.27-.091-.63-.044-1.081.018-.176.038-.276.062-.304.023-.025.108-.039.255-.039h.246l-.018-.079c-.041-.164-.062-.404-.062-.721s.022-.531.063-.642zm3.498 0l.026-.053h.501c.328 0 .498.006.51.018.035.059.059.231.07.519s.006.513-.018.677a2.682 2.682 0 0 1-.053.264c-.012.012-.1.018-.264.018-.158 0-.237.009-.237.026.047.082.07.319.07.712 0 .416-.023.665-.07.747-.012.012-.1.018-.264.018-.17 0-.249.006-.237.018.053.094.079.334.079.721 0 .398-.026.645-.079.738-.018.018-.105.026-.264.026-.17 0-.249.006-.237.018.053.094.079.334.079.721 0 .398-.026.645-.079.738-.012.012-.1.018-.264.018-.158 0-.237.009-.237.026.053.094.079.331.079.712 0 .404-.026.653-.079.747-.012.012-.1.018-.264.018-.17 0-.249.006-.237.018.053.094.079.334.079.721 0 .398-.026.645-.079.738-.018.018-.105.026-.264.026-.17 0-.249.006-.237.018.047.082.07.334.07.756s-.023.656-.07.703c-.012.012-.185.018-.519.018l-.501-.009-.018-.07c-.07-.252-.082-.612-.035-1.081.018-.176.038-.275.062-.299s.108-.035.255-.035h.246l-.026-.088c-.07-.258-.082-.615-.035-1.072.018-.176.038-.277.062-.303.023-.027.108-.04.255-.04h.246l-.026-.079c-.076-.275-.091-.636-.044-1.081.018-.176.038-.276.062-.304.023-.025.108-.039.255-.039h.255l-.026-.079c-.076-.275-.091-.636-.044-1.081.018-.176.038-.275.062-.299s.108-.035.255-.035h.255l-.026-.088c-.076-.275-.091-.633-.044-1.072.018-.176.038-.277.062-.303.023-.027.108-.04.255-.04h.246l-.018-.079c-.076-.275-.091-.636-.044-1.081.018-.176.038-.276.062-.304.023-.025.108-.039.255-.039h.246l-.018-.079c-.041-.164-.062-.404-.062-.721s.019-.534.06-.645zm-2.505 1.512l.026-.07h-.246c-.158 0-.237.009-.237.026.047.082.07.319.07.712 0 .416-.023.665-.07.747-.012.012.067.018.237.018h.246l-.026-.079c-.041-.158-.062-.393-.062-.703s.021-.528.062-.651zm2.505 4.491l.026-.062h.747c.492 0 .747.009.765.026.029.053.051.224.065.515.015.289.011.508-.013.654a1.353 1.353 0 0 0-.027.167.514.514 0 0 1-.026.114l.211.026h.026c.164 0 .252.006.264.018.029.053.051.224.066.515.014.289.01.508-.014.654a.986.986 0 0 0-.027.176.514.514 0 0 1-.026.114c-.018.018-.105.026-.264.026-.17 0-.249.006-.237.018.047.082.068.334.065.756s-.027.656-.074.703c-.012.012-.267.018-.765.018l-.747-.009-.018-.07c-.041-.146-.062-.378-.062-.694s.021-.533.062-.65l.026-.07-.255-.009-.255-.009-.018-.07c-.076-.27-.091-.627-.044-1.072.018-.176.038-.277.062-.303.023-.027.108-.04.255-.04h.246l-.018-.079c-.041-.164-.062-.404-.062-.721s.025-.531.066-.642zm1.002 1.512l.018-.07h-.246c-.17 0-.249.006-.237.018.047.082.07.322.07.721 0 .41-.023.656-.07.738l.211.026h.272l-.018-.088a2.972 2.972 0 0 1-.062-.699c0-.307.021-.523.062-.646zM222.462 183.87l.026-.053h.747c.492 0 .744.006.756.018.035.059.059.231.07.519s.006.513-.018.677a2.682 2.682 0 0 1-.053.264l.211.026h.026c.164 0 .252.006.264.018.035.059.059.231.07.519s.006.513-.018.677a2.682 2.682 0 0 1-.053.264h.062c.041.006.101.011.181.014.078.003.162.004.25.004h.492l-.018-.079c-.076-.275-.091-.636-.044-1.081.018-.176.038-.275.062-.299s.108-.035.255-.035h.246l-.018-.088c-.041-.164-.062-.404-.062-.721s.021-.53.062-.642l.026-.053h.747c.498 0 .753.006.765.018.035.059.059.231.07.519s.006.513-.018.677a2.682 2.682 0 0 1-.053.264c-.018.018-.105.026-.264.026-.17 0-.249.006-.237.018.047.082.07.322.07.721 0 .41-.023.656-.07.738-.012.012-.185.018-.519.018h-.109c-.039 0-.074.002-.105.004-.033.004-.063.005-.093.005s-.055.002-.075.005-.039.004-.057.004h-.035l-.009.009c.053.094.079.331.079.712 0 .404-.026.653-.079.747l.062.009.176.004c.076.004.158.005.246.005.334 0 .507.006.519.018.035.059.059.231.07.519s.006.513-.018.677a2.682 2.682 0 0 1-.053.264l.211.026h.026c.164 0 .252.006.264.018.035.059.059.231.07.519s.006.513-.018.677c-.029.164-.05.252-.062.264s-.267.018-.765.018l-.747-.009-.018-.07c-.041-.146-.062-.378-.062-.694s.021-.533.062-.65l.026-.07-.255-.009-.255-.009-.018-.07c-.041-.152-.062-.384-.062-.694s.021-.527.062-.65l.026-.07h-.655c-.05 0-.095.002-.136.005s-.078.004-.11.004h-.065l-.026.009c.053.094.079.334.079.721 0 .398-.026.645-.079.738-.018.018-.105.026-.264.026-.17 0-.249.006-.237.018.047.082.07.334.07.756s-.023.656-.07.703c-.012.012-.267.018-.765.018l-.747-.009-.026-.07c-.07-.252-.082-.612-.035-1.081.018-.176.038-.275.062-.299s.108-.035.255-.035h.246l-.018-.088c-.041-.164-.062-.404-.062-.721s.021-.53.062-.642l.026-.053h.993l-.026-.079c-.041-.158-.062-.393-.062-.703s.021-.527.062-.65l.026-.07h-.501l-.51-.009-.018-.07c-.041-.152-.061-.385-.058-.698s.025-.529.066-.646l.018-.07-.255-.009-.246-.009-.026-.07c-.041-.152-.061-.391-.057-.717.008-.336.031-.551.072-.657zM230.952 179.37l.018-.053h1.749c1.166 0 1.755.006 1.767.018.035.059.059.231.07.519s.006.513-.018.677a2.682 2.682 0 0 1-.053.264l.211.026h.026c.164 0 .252.006.264.018.035.059.059.231.07.519s.006.513-.018.677a2.682 2.682 0 0 1-.053.264c-.012.012.067.018.237.018.158 0 .246.009.264.026a.363.363 0 0 1 .026.105c.076.404.073.823-.009 1.257a.732.732 0 0 0 0 .229c.029.152.044.366.044.642s-.015.486-.044.633a.677.677 0 0 0 0 .22c.035.17.051.425.049.765-.004.34-.025.542-.066.606-.012.012-.1.018-.264.018h-.246l.018.079c.041.152.06.413.057.782s-.027.577-.074.624c-.006.006-.428.009-1.266.009h-1.248l-.018-.07c-.041-.152-.062-.387-.062-.703s.021-.533.062-.65l.026-.062-.255-.009-.255-.009-.018-.07c-.041-.146-.062-.378-.062-.694s.021-.533.062-.65a.35.35 0 0 0 0-.158 2.972 2.972 0 0 1-.062-.699c0-.307.021-.522.062-.646a.313.313 0 0 0 0-.149c-.041-.158-.061-.396-.058-.717.003-.318.025-.534.066-.646l.018-.062h1.494l-.018-.079a2.974 2.974 0 0 1-.062-.698c0-.309.021-.523.062-.646l.026-.07H232.029c-.065 0-.126.002-.185.004a2.223 2.223 0 0 1-.154.005h-.118a.258.258 0 0 0-.079.009h-.018c.053.094.079.334.079.721 0 .398-.026.645-.079.738-.012.012-.097.018-.255.018s-.237.009-.237.026c.041.064.062.266.066.603a3.96 3.96 0 0 1-.049.76.733.733 0 0 0 0 .229c.029.152.044.366.044.642s-.015.486-.044.633a.677.677 0 0 0 0 .22c.035.17.051.424.049.76-.004.338-.025.538-.066.603-.006.006-.008.02-.004.04a.415.415 0 0 0 .013.065c.041.146.06.399.058.761-.004.359-.025.575-.066.646-.012.012.067.018.237.018.123 0 .196.003.22.009s.041.023.053.053c.029.076.049.248.057.514.01.268.002.479-.021.638s-.041.246-.053.264c-.006.006.067.011.22.013a81.826 81.826 0 0 0 1.52.014c1.166 0 1.755.006 1.767.018.029.053.051.225.065.514.015.291.011.509-.013.655a.558.558 0 0 0-.018.093.815.815 0 0 0-.009.083c-.012.064-.023.103-.035.114s-.683.018-2.013.018l-2.004-.009-.018-.07c-.041-.152-.061-.387-.058-.703s.025-.533.066-.65l.018-.062-.501-.009-.501-.009-.026-.07c-.041-.152-.061-.385-.058-.699.003-.312.025-.528.066-.646l.018-.07-.246-.009h-.255l-.018-.07c-.041-.152-.062-.387-.062-.703s.021-.533.062-.65a.313.313 0 0 0 0-.149 2.974 2.974 0 0 1-.062-.698c0-.309.021-.523.062-.646a.35.35 0 0 0 0-.158 2.972 2.972 0 0 1-.062-.699c0-.307.021-.522.062-.646a.313.313 0 0 0 0-.149c-.076-.275-.091-.636-.044-1.081.018-.176.038-.276.062-.304.023-.025.108-.039.255-.039h.246l-.018-.079c-.041-.164-.062-.404-.062-.721s.021-.53.062-.642l.026-.053h.993l-.026-.088c-.041-.158-.061-.396-.058-.717.009-.331.031-.547.072-.658zm2.997 4.518l.018-.07h-.645c-.051 0-.096.002-.137.005s-.078.004-.109.004h-.066l-.026.009c.041.064.064.267.07.606s-.009.595-.044.765a.677.677 0 0 0 0 .22c.041.176.059.433.053.77s-.032.537-.079.602h.062c.041.006.1.011.176.014s.158.004.246.004h.501l-.018-.079a2.974 2.974 0 0 1-.062-.698c0-.309.021-.523.062-.646a.35.35 0 0 0 0-.158 2.972 2.972 0 0 1-.062-.699c-.001-.31.019-.526.06-.649zM238.95 180.873l.018-.053h1.248c.832 0 1.254.006 1.266.018.035.059.059.231.07.519s.006.513-.018.677a2.682 2.682 0 0 1-.053.264c-.012.012.067.018.237.018.158 0 .246.009.264.026.035.059.059.23.07.515s.006.508-.018.672c-.029.17-.047.261-.053.272-.012.012.067.018.237.018.164 0 .252.006.264.018.035.059.059.231.07.519s.006.513-.018.677c-.029.164-.05.252-.062.264s-.267.018-.765.018l-.747-.009-.018-.07c-.041-.152-.062-.385-.062-.699 0-.312.021-.528.062-.646l.026-.07-.255-.009h-.255l-.018-.07c-.041-.152-.062-.385-.062-.699 0-.312.021-.531.062-.654l.026-.07h-.255c-.158 0-.237.009-.237.026.053.094.079.331.079.712 0 .404-.026.653-.079.747-.012.012-.1.018-.264.018-.17 0-.249.006-.237.018.047.076.07.327.07.751 0 .426-.023.661-.07.708-.012.012-.27.018-.773.018l-.747-.009-.018-.07c-.07-.252-.082-.609-.035-1.072.018-.176.038-.277.062-.303.023-.027.108-.04.255-.04h.246l-.026-.079c-.07-.258-.082-.618-.035-1.081.018-.176.038-.276.062-.304.023-.025.108-.039.255-.039h.246l-.026-.079c-.041-.158-.061-.396-.057-.716.005-.325.027-.541.068-.652zM244.856 183.87l.026-.053h.747c.492 0 .744.006.756.018.029.053.053.224.07.515.018.289.015.508-.009.654a.886.886 0 0 0-.027.176c-.012.064-.023.103-.035.114s-.267.018-.765.018l-.747-.009-.026-.07c-.041-.152-.061-.391-.058-.717.005-.325.027-.54.068-.646zm0 3.006l.026-.062h1.494l.026.062c.047.117.067.372.062.765s-.032.612-.079.659c-.006.006-.261.009-.765.009h-.747l-.026-.07c-.041-.152-.061-.391-.058-.717.004-.325.026-.541.067-.646zm2.004-4.5l.018-.062h.501c.322 0 .492.009.51.026a.363.363 0 0 1 .026.105c.076.416.076.835 0 1.257a.732.732 0 0 0 0 .229c.041.176.059.431.053.765s-.032.533-.079.598l.211.026h.105c.088 0 .141.002.158.004.018.004.032.02.044.049.029.076.049.255.057.536.01.281.002.483-.021.606 0 .012-.002.026-.004.044l-.014.062a.24.24 0 0 0-.009.053.572.572 0 0 1-.026.123c-.012.012-.1.018-.264.018-.158 0-.237.009-.237.026.041.064.064.266.07.603s-.009.59-.044.76a.733.733 0 0 0 0 .229c.041.182.057.443.049.787-.01.342-.034.534-.075.575-.012.012-.185.018-.519.018l-.501-.009-.018-.07c-.041-.152-.062-.385-.062-.699 0-.312.021-.528.062-.646a.313.313 0 0 0 0-.149c-.041-.158-.062-.393-.062-.703s.021-.527.062-.65l.026-.062-.255-.009-.255-.009-.018-.07c-.076-.27-.091-.63-.044-1.081.018-.176.038-.275.062-.299s.108-.035.255-.035h.255l-.026-.088a2.972 2.972 0 0 1-.062-.699c0-.307.021-.522.062-.646a.313.313 0 0 0 0-.149c-.041-.158-.061-.396-.058-.717.004-.32.026-.536.067-.647zm1.494 1.494l.026-.053h.747c.498 0 .753.006.765.018.029.053.051.224.065.515.015.289.011.508-.013.654a.886.886 0 0 0-.027.176c-.012.064-.023.103-.035.114s-.267.018-.765.018l-.747-.009-.018-.07c-.041-.152-.062-.391-.062-.717.003-.325.023-.54.064-.646zm0 3.006l.026-.062h.747c.492 0 .747.009.765.026.029.053.051.224.065.515.015.289.011.508-.013.654-.006.018-.012.047-.018.088s-.009.067-.009.079c-.012.07-.023.111-.035.123-.006.006-.261.009-.765.009h-.747l-.018-.07c-.041-.152-.062-.391-.062-.717.003-.324.023-.54.064-.645zM252.837 182.376l.026-.062h.747c.486 0 .738.009.756.026.035.059.059.23.07.515s.006.508-.018.672c-.029.17-.047.261-.053.272l.062.009.18.004c.08.004.163.005.251.005h.492l-.018-.079c-.041-.164-.062-.404-.062-.721s.021-.53.062-.642l.026-.062h.747c.492 0 .747.009.765.026.035.059.059.23.07.515s.006.508-.018.672c-.029.17-.047.261-.053.272l.062.009.176.004c.076.004.158.005.246.005.334 0 .507.006.519.018.035.059.059.231.07.519a3.367 3.367 0 0 1-.039.756l-.01.057-.008.045a.127.127 0 0 0-.005.035v.021a.028.028 0 0 1-.009.018v.009c-.018.018-.19.026-.519.026-.088 0-.17.002-.246.004a2.132 2.132 0 0 0-.176.014h-.062c.041.064.064.266.07.602.006.338-.009.591-.044.761a.733.733 0 0 0 0 .229c.041.176.059.433.053.769-.006.338-.032.538-.079.603l.062.009.176.004c.076.004.158.005.246.005.334 0 .507.006.519.018.035.059.059.231.07.519a3.367 3.367 0 0 1-.039.756l-.01.057-.008.045a.127.127 0 0 0-.005.035v.021a.028.028 0 0 1-.009.018v.009c-.018.018-.188.026-.51.026h-.501l.026.079c.041.152.059.412.053.778-.006.365-.032.572-.079.619-.012.012-.267.018-.765.018l-.747-.009-.018-.07c-.041-.146-.062-.378-.062-.694s.021-.533.062-.65l.026-.07h-.993l.018.079c.041.152.06.412.058.778-.004.365-.028.572-.075.619-.012.012-.27.018-.773.018l-.747-.009-.018-.07c-.041-.152-.061-.387-.057-.703.002-.316.024-.533.065-.65l.018-.062-.501-.009-.501-.009-.018-.07c-.041-.152-.062-.391-.062-.717 0-.324.021-.54.062-.646l.026-.053h.993l-.018-.079c-.041-.158-.062-.393-.062-.703s.021-.527.062-.65a.313.313 0 0 0 0-.149c-.041-.158-.062-.393-.062-.703s.021-.527.062-.65l.018-.062-.501-.009-.501-.009-.018-.07c-.041-.152-.062-.391-.062-.717 0-.324.021-.54.062-.646l.026-.053h.993l-.018-.079c-.041-.164-.062-.404-.062-.721s.027-.534.068-.645zm2.496 3.015l.026-.07h-.654c-.051 0-.096.002-.137.004a1.117 1.117 0 0 1-.109.005.158.158 0 0 0-.066.009h-.026c.041.064.064.266.07.602.006.338-.009.591-.044.761a.733.733 0 0 0 0 .229c.041.176.059.433.053.769-.006.338-.032.538-.079.603l.062.009.18.004c.08.004.163.005.251.005h.492l-.018-.079c-.041-.158-.062-.393-.062-.703s.021-.527.062-.65a.313.313 0 0 0 0-.149 2.974 2.974 0 0 1-.062-.698c-.001-.313.02-.528.061-.651zM260.316 182.376l.026-.062h.747c.486 0 .738.009.756.026.035.059.059.23.07.515s.006.508-.018.672c-.029.17-.047.261-.053.272l.062.009.18.004c.08.004.163.005.251.005h.492l-.018-.079c-.041-.164-.062-.404-.062-.721s.021-.53.062-.642l.026-.062h.747c.492 0 .747.009.765.026.035.059.059.23.07.515s.006.508-.018.672c-.029.17-.047.261-.053.272l.062.009.176.004c.076.004.158.005.246.005.334 0 .507.006.519.018.035.059.059.231.07.519a3.367 3.367 0 0 1-.039.756l-.01.057-.008.045a.127.127 0 0 0-.005.035v.021a.028.028 0 0 1-.009.018v.009c-.018.018-.19.026-.519.026-.088 0-.17.002-.246.004a2.132 2.132 0 0 0-.176.014h-.062c.041.064.064.266.07.602.006.338-.009.591-.044.761a.733.733 0 0 0 0 .229c.041.176.059.433.053.769-.006.338-.032.538-.079.603l.062.009.176.004c.076.004.158.005.246.005.334 0 .507.006.519.018.035.059.059.231.07.519a3.367 3.367 0 0 1-.039.756l-.01.057-.008.045a.127.127 0 0 0-.005.035v.021a.028.028 0 0 1-.009.018v.009c-.018.018-.188.026-.51.026h-.501l.026.079c.041.152.059.412.053.778-.006.365-.032.572-.079.619-.012.012-.267.018-.765.018l-.747-.009-.018-.07c-.041-.146-.062-.378-.062-.694s.021-.533.062-.65l.026-.07h-.993l.018.079c.041.152.06.412.058.778-.004.365-.028.572-.075.619-.012.012-.27.018-.773.018l-.747-.009-.018-.07c-.041-.152-.061-.387-.057-.703.002-.316.024-.533.065-.65l.018-.062-.501-.009-.501-.009-.018-.07c-.041-.152-.062-.391-.062-.717 0-.324.021-.54.062-.646l.026-.053h.993l-.018-.079c-.041-.158-.062-.393-.062-.703s.021-.527.062-.65a.313.313 0 0 0 0-.149c-.041-.158-.062-.393-.062-.703s.021-.527.062-.65l.018-.062-.501-.009-.501-.009-.018-.07c-.041-.152-.062-.391-.062-.717 0-.324.021-.54.062-.646l.026-.053h.993l-.018-.079c-.041-.164-.062-.404-.062-.721s.027-.534.068-.645zm2.496 3.015l.026-.07h-.654c-.051 0-.096.002-.137.004a1.117 1.117 0 0 1-.109.005.158.158 0 0 0-.066.009h-.026c.041.064.064.266.07.602.006.338-.009.591-.044.761a.733.733 0 0 0 0 .229c.041.176.059.433.053.769-.006.338-.032.538-.079.603l.062.009.18.004c.08.004.163.005.251.005h.492l-.018-.079c-.041-.158-.062-.393-.062-.703s.021-.527.062-.65a.313.313 0 0 0 0-.149 2.974 2.974 0 0 1-.062-.698c0-.313.02-.528.061-.651z"/>
    </g>
    <path fill="#DFE4E7" d="M172.5 272.422l.806 2.059.908-1.335v-17.29h-5.219v15.977l1.505 1.334zM173.201 283.637l-.701-2.215-2 .745-1.505-1.334v18.324h5.219v-17.011z"/>
    <g fill="#BF0000">
        <path d="M418.802 365.865c-11.304 0-20.5-9.173-20.5-20.447a20.29 20.29 0 0 1 3.668-11.675 20.545 20.545 0 0 1 16.832-8.773c11.304 0 20.5 9.173 20.5 20.448 0 11.274-9.197 20.447-20.5 20.447zm0-36.895a16.545 16.545 0 0 0-13.553 7.064 16.303 16.303 0 0 0-2.947 9.384c0 9.069 7.402 16.447 16.5 16.447s16.5-7.378 16.5-16.447-7.403-16.448-16.5-16.448z"/>
        <path d="M407.19 331.02l26.031 25.956-2.824 2.833-26.03-25.957z"/>
    </g>
    <g fill="#BF0000">
        <path d="M147.377 672.777c-11.304 0-20.5-9.173-20.5-20.447a20.29 20.29 0 0 1 3.668-11.675 20.545 20.545 0 0 1 16.832-8.773c11.304 0 20.5 9.173 20.5 20.448 0 11.274-9.196 20.447-20.5 20.447zm0-36.895a16.545 16.545 0 0 0-13.553 7.064 16.303 16.303 0 0 0-2.947 9.384c0 9.069 7.402 16.447 16.5 16.447s16.5-7.378 16.5-16.447-7.402-16.448-16.5-16.448z"/>
        <path d="M135.77 637.925l26.03 25.957-2.825 2.833-26.03-25.957z"/>
    </g>
    <path fill="#BF0000" d="M495.39 121.42a.997.997 0 0 1-.648-.238l-13.318-11.333a1.002 1.002 0 0 1-.282-1.128c.157-.397.555-.642.975-.633l17.718.787v-18.32a1 1 0 0 1 1.684-.73l14.707 13.79 6.039-16.846a.972.972 0 0 1 .99-.661 1 1 0 0 1 .921.755l4.186 16.656a1 1 0 1 1-1.94.488l-3.384-13.467-5.443 15.184a1 1 0 0 1-1.625.392l-14.135-13.253v17.057a1 1 0 0 1-.309.723.968.968 0 0 1-.735.276l-15.849-.704 11.098 9.443a1 1 0 0 1-.65 1.762zM543.204 750.064a1 1 0 0 1-.854-.479l-3.576-5.864-6.804 2.876a.999.999 0 0 1-1.267-1.401l5.654-10.328a.999.999 0 1 1 1.753.961l-4.274 7.809 4.952-2.094a1 1 0 0 1 1.243.4l3.057 5.013 2.216-4.72c.176-.372.573-.584.969-.573l5.061.324-4.097-4.967a1.003 1.003 0 0 1 .389-1.561l5.853-2.424a1 1 0 0 1 .766 1.848l-4.604 1.906 4.706 5.706a1 1 0 0 1 .119 1.092c-.182.355-.55.557-.954.543l-6.687-.429-2.717 5.787a.997.997 0 0 1-.851.573c-.017.002-.035.002-.053.002z"/>
    <g fill="#BBC3C9">
        <circle cx="665.894" cy="505.044" r="18.829"/>
        <circle cx="650.043" cy="523.874" r="16.35"/>
        <path d="M678.249 523.874c0 6.82-5.533 12.354-12.356 12.354-6.82 0-12.355-5.533-12.355-12.354 0-6.823 5.535-12.355 12.355-12.355 6.823 0 12.356 5.532 12.356 12.355z"/>
        <path d="M679.248 542.202c0 7.096-5.759 12.855-12.854 12.855-7.095 0-12.856-5.76-12.856-12.855 0-7.095 5.762-12.854 12.856-12.854 7.095.001 12.854 5.759 12.854 12.854z"/>
        <path d="M680.263 555.058c0 4.633-3.762 8.395-8.396 8.395-4.633 0-8.395-3.762-8.395-8.395 0-4.634 3.762-8.397 8.395-8.397 4.634-.001 8.396 3.763 8.396 8.397z"/>
    </g>
    <g fill="#BBC3C9">
        <circle cx="400.616" cy="582.522" r="25.893"/>
        <circle cx="422.414" cy="608.417" r="22.484"/>
        <path d="M383.626 608.417c0 9.38 7.608 16.989 16.991 16.989 9.38 0 16.991-7.609 16.991-16.989 0-9.382-7.611-16.991-16.991-16.991-9.383 0-16.991 7.609-16.991 16.991z"/>
        <path d="M382.252 633.622c0 9.758 7.921 17.679 17.678 17.679s17.679-7.921 17.679-17.679c0-9.757-7.922-17.676-17.679-17.676s-17.678 7.919-17.678 17.676z"/>
        <path d="M380.855 651.301c0 6.372 5.175 11.545 11.546 11.545s11.545-5.173 11.545-11.545-5.174-11.547-11.545-11.547-11.546 5.175-11.546 11.547z"/>
    </g>
    <g>
        <path fill="#80CEEF" d="M424.832 509.384c4.254-1.207 7.464.538 8.549 2.273.766 1.226.601 3.57-.888 4.212-1.32.57-2.621.316-3.568-.794 0 0-.932-1.133-1.335-3.131-.33-1.639-.823-2.042-2.758-2.56zM425.228 522.387c-.718-1.723-1.796-2.938-2.901-4.415a33.613 33.613 0 0 1-1.767-2.587c-.778-1.264-1.47-2.589-1.98-3.986-.235-.642-.594-2.684-.633-2.386-.041-.298-.4 1.744-.635 2.386-.509 1.397-1.202 2.723-1.979 3.986a33.053 33.053 0 0 1-1.767 2.587c-1.106 1.477-2.183 2.692-2.9 4.415-.835 2.002-1.206 4.171-.651 6.297 0 .001 1.479 5.664 7.865 5.742v.005c.023 0 .044-.003.067-.003l.066.003v-.005c6.386-.078 7.864-5.741 7.864-5.742.556-2.126.185-4.295-.649-6.297z"/>
        <path fill="#FFF" d="M412.287 522.856s-2.938 6.795 4.309 8.079c0 .001-3.694-2.114-4.309-8.079z"/>
    </g>
    <path fill="#F6F7F9" d="M510.219 124.225l-1.606 7.222 5.969-3.209 3.385 5.469 1.995-7.47 7.496 5.011 2.84-4.212 4.573 3.051 2.492-2.614-3.039 1.089-4.483-3.292-3.189 2.865-6.373-6.516z"/>
    <path fill="#475058" d="M726.803 391.713h4.834l-3.5 8h2l-7 12.167 2.833-9.167h-2.833zM736.342 409.724l2.01 2.01-4.793 1.871.831.833-7.987 2.147 5.003-2.634-1.178-1.179z"/>
    <g fill="#BF0000">
        <path d="M311.275 573.889h4.449v22.243h-4.449zM311.275 600.58h4.449v4.449h-4.449z"/>
    </g>
    <g fill="#009CDE">
        <path d="M694.746 405.272l2.78-.614-2.801-1.01-.59-1.727-1.203 1.283-2.314-.125 1.395 1.648-1.613 1.575 1.717-.091.394 1.996 1.106-1.859 1.987 1.59zM692.771 402.339l.452-1.252-2.363-1.02.285 1.551zM695.74 401.018l-1.04.265.548-1.521.836.3zM698.295 409.447l-1.373-.023-.76-1.822 1.756.834zM701.131 408.211l-2.254-1.787 2.951-.992z"/>
    </g>
    <path fill="#FFF" d="M699.771 383.992l3.333 3.905-5.465-.616.17 2.488-3.946-2.881-3.975 4.445-2.514-2.229-2.425 2.708-2.028-1.263 2.126.197 2.328-2.849 2.516 1.309 3.005-5.224z"/>
    <path fill="#DFE4E7" d="M694.919 390.8l-8.067-12.16-.366-.078-.187.145-.596-.303.269 1.131-.513-.245-.028.227-.483-.111.009 1.008-.492-.062-.099.446-1.327-.054-.058.654-.548.232.179.547.087.579-.269-.031 7.629 11.326.078-.629.523-.003.026-.957.656.013.253-.402.293.379.704-.598.433.145.202-.474 1.121.046.218-.658z"/>
    <g fill="#F6F7F9">
        <path d="M677.546 349.738a.376.376 0 0 1-.297-.146l-3-3.875a.375.375 0 0 1 .593-.459l2.625 3.391 1.739-3.696a.374.374 0 1 1 .678.32l-2 4.25a.377.377 0 0 1-.298.213l-.04.002z"/>
        <path d="M678.546 350.176l-.04-.002a.376.376 0 0 1-.298-.211l-.609-1.269a.374.374 0 1 1 .676-.324l.348.724 2.753-3.523a.375.375 0 0 1 .591.461l-3.125 4a.38.38 0 0 1-.296.144z"/>
        <path d="M679.546 350.863a.37.37 0 0 1-.323-.186l-.658-1.125a.374.374 0 1 1 .647-.379l.495.847 3.45-1.381a.38.38 0 0 1 .488.209.377.377 0 0 1-.209.488l-3.75 1.5a.383.383 0 0 1-.14.027z"/>
        <path d="M682.296 354.426a.377.377 0 0 1-.262-.106l-3.408-3.312a.374.374 0 0 1 .129-.619l.658-.25a.374.374 0 1 1 .265.701l-.107.041 2.986 2.902a.375.375 0 0 1-.261.643z"/>
        <path d="M679.804 355.27a.373.373 0 0 1-.325-.188l-1.867-3.266a.375.375 0 0 1 .325-.562h1.867a.375.375 0 0 1 0 .75h-1.221l1.546 2.704a.374.374 0 0 1-.325.562z"/>
        <path d="M675.796 355.27a.375.375 0 0 1-.313-.582l2.141-3.266a.375.375 0 1 1 .627.413l-2.141 3.266a.378.378 0 0 1-.314.169z"/>
        <path d="M677.046 353.363a.375.375 0 0 1-.375-.375v-.984h-.814a.375.375 0 0 1 0-.75h1.189c.207 0 .375.168.375.375v1.359a.375.375 0 0 1-.375.375z"/>
        <path d="M674.796 353.637a.377.377 0 0 1-.317-.576l1.461-2.314-2.844-.579a.374.374 0 0 1-.292-.442.365.365 0 0 1 .442-.292l3.375.688a.377.377 0 0 1 .243.568l-1.75 2.773a.378.378 0 0 1-.318.174z"/>
        <path d="M676.099 350.682a.378.378 0 0 1-.36-.481l.102-.345-2.548-2.342a.376.376 0 0 1 .508-.552l2.719 2.5a.378.378 0 0 1 .106.382l-.166.568a.379.379 0 0 1-.361.27z"/>
        <path d="M676.546 349.738h-.689a.375.375 0 0 1 0-.75h.314v-.917a.375.375 0 0 1 .75 0v1.292a.375.375 0 0 1-.375.375zM674.905 350.538a.375.375 0 0 1-.369-.439l.249-1.446a.367.367 0 0 1 .433-.306.375.375 0 0 1 .306.433l-.249 1.446a.376.376 0 0 1-.37.312zM681.421 350.113a.373.373 0 0 1-.26-.104l-1.617-1.548a.375.375 0 0 1 .519-.541l1.617 1.548a.375.375 0 0 1-.259.645zM678.714 353.363h-1.668a.375.375 0 0 1 0-.75h1.668a.375.375 0 0 1 0 .75z"/>
    </g>
    <path fill="#BF0000" d="M268.94 674.615c-.449 0-.845-.3-.965-.736l-7.563-27.637-3.625 11.492a1.002 1.002 0 0 1-.954.699h-48.018a1 1 0 1 1 0-2H255.1l4.427-14.031c.134-.422.51-.692.974-.699.443.009.828.309.945.736l7.299 26.67L271 656.72a.998.998 0 0 1 .983-.821h46.832a1 1 0 1 1 0 2h-45.998l-2.894 15.896a.998.998 0 0 1-.939.82h-.044z"/>
</svg>
