<svg width="146" height="108" viewBox="0 0 146 108" xmlns="http://www.w3.org/2000/svg">
    <title>
        Group 2
    </title>
    <g fill="#768892" fill-rule="evenodd">
        <path d="M120.368 68.992l4.872 1.124-.563 2.436-4.872-1.125.563-2.435zm-9.744-2.25l4.872 1.125-.562 2.436-4.872-1.125.562-2.436zm4.875-32.23c-3.045-.702-2.81-4.497-2.81-4.497 2.248 6.934 7.307 1.687 7.307 1.687s-1.452 3.514-4.497 2.81zm-14.619 29.98l4.872 1.125-.562 2.436-4.872-1.125.562-2.436zm-9.743-2.249l4.871 1.125-.562 2.436-4.872-1.125.563-2.436zm17.98-41.281a2.497 2.497 0 0 1 3.444.795 2.497 2.497 0 0 1-.796 3.445 2.497 2.497 0 0 1-3.444-.796 2.497 2.497 0 0 1 .795-3.444zm14.615 3.374a2.497 2.497 0 0 1 3.444.795 2.497 2.497 0 0 1-.795 3.445 2.497 2.497 0 0 1-3.444-.795 2.497 2.497 0 0 1 .795-3.445zm8.815 47.467l12.775-55.332c.71-3.074-.895-6.07-3.587-6.69l-13.398-3.094a6.25 6.25 0 0 1-7.495 4.684 6.25 6.25 0 0 1-4.684-7.495L102.76.782c-2.69-.62-5.447 1.368-6.157 4.442L83.83 60.556l2.436.562-.563 2.436-2.436-.562-6.588 28.537c-.71 3.074.898 6.07 3.587 6.69l13.398 3.094a6.25 6.25 0 0 1 7.495-4.684 6.25 6.25 0 0 1 4.684 7.495l13.398 3.094c2.692.621 5.447-1.368 6.157-4.442l6.588-28.537-2.436-.562.562-2.436 2.436.562zM25.632 68.992l-4.872 1.124.563 2.436 4.872-1.125-.563-2.435zm9.744-2.25l-4.872 1.125.562 2.436 4.872-1.125-.562-2.436zm-4.875-32.23c3.045-.702 2.81-4.497 2.81-4.497-2.248 6.934-7.307 1.687-7.307 1.687s1.452 3.514 4.497 2.81zm14.619 29.98l-4.872 1.125.562 2.436 4.872-1.125-.562-2.436zm9.743-2.249l-4.871 1.125.562 2.436 4.872-1.125-.563-2.436zm-17.98-41.281a2.497 2.497 0 0 0-3.444.795 2.497 2.497 0 0 0 .796 3.445 2.497 2.497 0 0 0 3.444-.796 2.497 2.497 0 0 0-.795-3.444zm-14.615 3.374a2.497 2.497 0 0 0-3.444.795 2.497 2.497 0 0 0 .795 3.445 2.497 2.497 0 0 0 3.444-.795 2.497 2.497 0 0 0-.795-3.445zm-8.815 47.467L.678 16.471c-.71-3.074.895-6.07 3.587-6.69l13.398-3.094a6.25 6.25 0 0 0 7.495 4.684 6.25 6.25 0 0 0 4.684-7.495L43.24.782c2.69-.62 5.447 1.368 6.157 4.442L62.17 60.556l-2.436.562.563 2.436 2.436-.562 6.588 28.537c.71 3.074-.898 6.07-3.587 6.69l-13.398 3.094a6.25 6.25 0 0 0-7.495-4.684 6.25 6.25 0 0 0-4.684 7.495l-13.398 3.094c-2.692.621-5.447-1.368-6.157-4.442L14.015 74.24l2.436-.562-.562-2.436-2.436.562z"/>
    </g>
</svg>
