<svg width="175" height="22" viewBox="0 0 175 22" xmlns="http://www.w3.org/2000/svg">
    <title>
        Live Nation
    </title>
    <desc>
        Live Nation logo.
    </desc>
    <g fill="" fill-rule="evenodd">
        <path d="M2.8 17.77V7.202H.554v12.816h11.89l.001-2.248H2.801zM84.21 8.262c-.71-.708-1.607-1.06-2.694-1.06h-11.07v12.817h2.248V9.47h8.827c.464 0 .832.135 1.1.405.27.267.404.633.404 1.096v9.048h2.247v-9.047c0-1.097-.354-2.002-1.062-2.71M131.539 20.019h-2.248V7.18h2.248v12.838zM39.096 7.202l-5.604 11.81c-.318.672-.856 1.007-1.612 1.007-.759 0-1.295-.335-1.612-1.008l-5.606-11.81h2.487l4.275 8.898c.085.184.235.275.456.275.218 0 .37-.09.455-.275l4.273-8.897h2.488zM57.063 20.019h-10.9c-1.087 0-1.984-.355-2.692-1.071-.71-.712-1.063-1.613-1.063-2.7v-5.276c0-1.11.35-2.018 1.053-2.719.702-.703 1.603-1.051 2.702-1.051h10.9V9.47H46.159c-1.003 0-1.503.5-1.503 1.501v1.502h12.407v2.272H44.656v1.502c0 .464.134.83.402 1.098.27.27.636.405 1.1.405h10.905v2.268zM103.45 14.309v-3.337c0-1-.502-1.501-1.504-1.501h-7.15c-1.004 0-1.505.5-1.505 1.501v3.337h10.159zm2.248 5.71h-2.248v-3.44H93.29v3.44h-2.247v-9.047c0-1.11.352-2.018 1.053-2.719.703-.703 1.604-1.051 2.702-1.051h7.144c1.086 0 1.984.352 2.693 1.06.708.708 1.063 1.613 1.063 2.71v9.046zM124.292 9.47h-6.215v10.548h-2.25V9.471h-6.19V7.202h14.655v2.269zM149.027 16.248V10.97c0-.452-.138-.814-.414-1.09-.275-.274-.638-.41-1.09-.41h-7.153c-.428 0-.785.143-1.073.43a1.46 1.46 0 0 0-.43 1.07v5.277c0 1.001.502 1.503 1.503 1.503h7.152c1.003 0 1.505-.502 1.505-1.503zm2.247 0c0 1.134-.346 2.049-1.035 2.737-.691.69-1.598 1.033-2.72 1.033h-7.145c-1.098 0-2-.35-2.701-1.052-.702-.701-1.053-1.608-1.053-2.718v-5.276c0-1.05.362-1.94 1.089-2.672.727-.733 1.614-1.098 2.665-1.098h7.144c1.076 0 1.97.356 2.683 1.07.716.713 1.073 1.615 1.073 2.7v5.276zM169.902 8.262c-.708-.708-1.605-1.06-2.694-1.06H156.14v12.817h2.246V9.47h8.83c.464 0 .832.135 1.101.405.267.267.403.633.403 1.096v9.048h2.246v-9.047c0-1.097-.353-2.002-1.063-2.71M24.005 1.4S23.69.848 23.63.737c-.061-.11-.166-.023-.166-.023s-.32.239-.492.354c-.172.117-.16.247-.16.32 0 .074-.055.504-.055.504a.395.395 0 0 1-.1.228l-2.804 2.176-.35.08-.864.419.049-.592c.06.035.157.127.226.137a.665.665 0 0 0 .211-.023s-.048-.114-.048-.18c0-.067.017-.169.017-.169s.132.08.23.083a.34.34 0 0 0 .207-.063c.047-.039.095-.09.095-.09s-.165-.1-.217-.157c-.039-.04-.095-.104-.057-.102.082 0 .202-.113.202-.113s-.087-.054-.152-.108a.438.438 0 0 1-.138-.195c-.027-.076-.044-.146-.044-.146s.05.068.164.066c.1-.003.183-.066.183-.066s-.076-.041-.123-.093a.525.525 0 0 1-.12-.202c-.034-.114-.052-.169-.081-.257-.014-.04-.023-.11-.056-.22-.037-.254-.146-.359-.146-.359-.328-.442-1.085-.56-1.085-.56-.386-.08-.77.42-.923.924-.257.835-.182 1.654-.182 1.654s.014.156.148.244c.084.051.407.125.407.125l-.035.678-.803.072-1.097-.66-2.23-1.65s-.094-.058-.105-.234c0 0-.055-.432-.055-.504 0-.074.012-.204-.16-.32-.172-.116-.493-.355-.493-.355s-.103-.088-.165.024l-.374.664.164.633s.07.121.168.239l.143.145.825.738.017.007 1.354 1.208.388.375s.028.05.028.124c0 .073-.008.305-.008.305s-.007.071.038.112c.047.045.773.634.773.634s.05.042.05.15l.129 4.357s0 .069.07.069l.232.086.534 4.763 1.016 3.148-1.62.783s-.059.03-.087.1c0 0-.096.184-.096.222 0 .06.05.077.05.077l2.42.001-.232.628-.061.17s-.085.322.054.369c.138.046.568.062.753.053.24-.013.67-.046.737-.114.064-.064.094-.354-.25-2.287l-.209-7.438.62-4.661c.058-.516.127-.575.127-.575s.656-.489.72-.547c.063-.06.053-.154.053-.154v-.521c0-.102.038-.17.038-.17l.534-.514.161-.164 1.708-1.64.299-.342.143-.143c.1-.117.167-.24.167-.24s.122-.308.166-.413c.043-.103 0-.221 0-.221M173.104 8.5h.151c.176 0 .319-.058.319-.2 0-.126-.093-.21-.294-.21a.74.74 0 0 0-.176.017V8.5zm-.008.772h-.32V7.906c.127-.026.303-.05.53-.05.26 0 .376.041.478.108.075.06.133.168.133.294 0 .159-.117.276-.285.327v.017c.134.042.21.15.252.335.042.21.067.294.1.335h-.343c-.042-.05-.067-.167-.11-.326-.024-.152-.108-.219-.284-.219h-.151v.545zm.21-1.811c-.604 0-1.058.495-1.058 1.099 0 .612.454 1.098 1.074 1.098.604.009 1.048-.486 1.048-1.098 0-.604-.444-1.1-1.056-1.1h-.009zm.016-.276c.788 0 1.4.611 1.4 1.375 0 .78-.612 1.384-1.408 1.384-.788 0-1.417-.605-1.417-1.384 0-.764.629-1.375 1.417-1.375h.008z"/>
    </g>
</svg>
