<svg width="150" height="14" viewBox="0 0 150 14" xmlns="http://www.w3.org/2000/svg">
    <title>
        Group + Page 1
    </title>
    <g fill="none" fill-rule="evenodd">
        <path d="M2.045 13.803C.915 13.803 0 12.865 0 11.706V2.098C0 .938.915 0 2.045 0h60.171c1.13 0 2.045.939 2.045 2.098v9.608c0 1.159-.915 2.097-2.045 2.097H2.046z" fill="#FFF"/>
        <path d="M63.174 1.115c-.257-.264-.6-.41-.958-.41h-7.294l3.375 5.764.315.044.186.264v.25l.214.043.2.28v.234l.215.044s.215.234.215.25v.542s.472.455.9.616c.301.117.33.601.501.865.23.367.544.529.472.734-.157.572-.715 1.51-1.244 1.57h-2.088v.909h4.033c.758 0 1.359-.63 1.359-1.394V2.098c0-.367-.143-.72-.4-.983" fill="#C00"/>
        <path d="M52.92.704H2.044c-.357 0-.7.147-.958.41-.257.265-.4.617-.4.984v9.608c0 .366.143.718.4.982.257.265.6.411.958.411h46.283c-.214-.366-.457-.777-.529-.91h-1.015c0-2.58.858-4.018 1.873-4.297.143-.03.072-.734-.1-.954 0 0-.486.015-.586-.014-.129-.044-.043-.176-.043-.176L48.4 5.69l-.057-.293h-1.76c-.028 0 1.445-1.041 1.445-1.041.071-2.743 2.818-2.949 4.462-1.82.973.675 1.059 1.996.973 2.905-.014.059-.257.015-.257.015s-.172.997.271.997h1.931c.787-.03 1.545.514 1.545.514l.186-.69-4.22-5.574z" fill="#008"/>
        <path d="M24.73 9.095c.257 0 .485.088.671.278.186.191.286.411.286.69 0 .264-.1.499-.286.69a.905.905 0 0 1-.672.278.905.905 0 0 1-.672-.279.953.953 0 0 1-.272-.69c0-.263.086-.498.272-.689a.905.905 0 0 1 .672-.278M31.08 6.748l-1.33.278c-.044-.308-.144-.528-.301-.69a.892.892 0 0 0-.615-.234c-.343 0-.6.132-.815.396-.2.264-.3.719-.3 1.335 0 .704.1 1.188.3 1.482.2.293.472.425.83.425a.81.81 0 0 0 .629-.264c.157-.176.286-.47.343-.88l1.33.264c-.143.704-.4 1.232-.787 1.599-.386.367-.915.543-1.573.543-.744 0-1.344-.264-1.788-.807-.443-.543-.672-1.291-.672-2.245 0-.968.229-1.73.672-2.259.444-.542 1.044-.806 1.802-.806.615 0 1.116.146 1.488.454.357.308.615.778.786 1.409M33.425 6.616c.243-.308.544-.47.887-.47.357 0 .643.162.887.47.243.308.357.748.357 1.334 0 .587-.114 1.042-.357 1.35-.244.308-.53.47-.887.47-.358 0-.644-.162-.887-.47-.243-.308-.357-.763-.357-1.335-.015-.587.114-1.041.357-1.35M32.01 9.594c.215.47.544.822.973 1.071.429.25.872.367 1.344.367.758 0 1.387-.293 1.888-.88.5-.587.744-1.32.744-2.215 0-.88-.243-1.614-.744-2.186-.5-.572-1.13-.865-1.902-.865-.5 0-.958.132-1.359.381-.4.25-.715.63-.944 1.1-.229.47-.329.983-.329 1.496 0 .69.115 1.262.33 1.731M37.487 5.134h1.244v.807c.444-.616.973-.924 1.588-.924.329 0 .615.073.858.234.243.162.443.396.586.705.23-.309.472-.558.73-.705.257-.16.53-.234.83-.234.371 0 .686.088.958.264.257.176.457.425.586.777.1.25.143.66.143 1.218v3.755h-1.359V7.67c0-.586-.043-.953-.143-1.129a.625.625 0 0 0-.572-.337.83.83 0 0 0-.529.205c-.172.132-.286.323-.357.587-.072.25-.115.66-.115 1.218v2.816h-1.359V7.804c0-.572-.028-.939-.071-1.1a.669.669 0 0 0-.229-.367c-.1-.088-.243-.117-.415-.117-.214 0-.4.058-.558.19-.171.132-.286.323-.357.558-.072.249-.115.645-.115 1.217v2.86h-1.358l.014-5.91zM19.795 4.357c.357 0 .83.073 1 .22a.756.756 0 0 1 .258.601c0 .279-.085.484-.271.646-.186.16-.673.234-1.044.234h-.759V4.357h.816zm.543 6.674c.644 0 1.144-.088 1.516-.279.358-.19.658-.47.901-.85.23-.382.344-.793.344-1.247 0-.47-.115-.895-.33-1.233-.228-.352-.571-.645-1.058-.88.286-.22.5-.454.615-.704.129-.25.186-.528.186-.85 0-.47-.143-.895-.429-1.233-.286-.352-.658-.587-1.144-.719-.329-.102-1.502-.146-2.231-.146h-1.259v8.14h2.89zm-.615-3.58c.6 0 1.245.103 1.502.309.257.205.386.484.386.836 0 .308-.114.543-.329.704-.214.161-.858.25-1.502.25h-.8V7.451h.743zM3.16 11.03V2.905h2.39L6.993 8.45l1.402-5.545h2.402v8.127H9.325l-.014-6.396-1.559 6.396H6.207L4.648 4.635l-.014 6.396H3.161zM11.642 2.875h1.516V9.55h3.476v1.482h-4.992V2.875z" fill="#FFF"/>
        <g fill="#FEFEFE">
            <path d="M74.641 8.255L73.065 11.5h-.015l-.26-3.245h-.847L70.32 11.5h-.015l-.26-3.245h-.698l.417 4.036h.824l1.636-3.244h.015l.298 3.244h.803l2.074-4.036h-.774zM76.44 6.514l-.162.84h.787l.163-.84h-.788zm-.304 1.742l-.803 4.035h.698l.804-4.035h-.699zM77.644 8.255h.848l.186-.934.75-.277-.237 1.211h1.04l-.11.602h-1.05l-.348 1.733c-.038.182-.112.616-.112.76 0 .284.148.435.505.435.149 0 .357-.04.49-.103l-.103.618c-.156.063-.483.087-.684.087-.662 0-.907-.467-.907-.895 0-.262.089-.728.134-.95l.327-1.685h-.833l.104-.602zM81.413 6.356h.7l-.47 2.406h.016c.26-.404.72-.602 1.197-.602.736 0 1.263.412 1.263 1.267 0 .236-.044.506-.089.735l-.416 2.13h-.699l.469-2.415c.022-.134.037-.292.037-.38 0-.418-.26-.735-.692-.735-.862 0-1.286.997-1.382 1.494l-.402 2.035h-.699l1.167-5.935zM125.086 11.437h-.022c-.522.701-1.043 1.1-1.882 1.1-1.056 0-1.803-.629-1.803-1.775 0-2.052 2.155-2.21 3.582-2.21h.534c.045-.17.045-.35.045-.53 0-.63-.635-.81-1.168-.81-.669 0-1.315.18-1.917.484l.216-1.292a5.623 5.623 0 0 1 1.984-.374c1.168 0 2.267.458 2.267 1.919 0 .833-.577 3.27-.714 4.443h-1.28l.158-.955zm-1.485-.084c1.134 0 1.485-.833 1.724-1.834h-.533c-.737 0-1.961.132-1.961 1.183 0 .433.385.65.77.65zM85.694 6.168h1.1l.26-1.279 1.634-.567-.375 1.846h1.361l-.238 1.184h-1.361l-.555 2.716a2.733 2.733 0 0 0-.069.603c0 .374.239.603.579.603.272 0 .544-.06.738-.144l-.262 1.255c-.261.06-.556.145-.816.145-1.032 0-1.758-.434-1.758-1.63 0-.481.09-.953.193-1.448l.431-2.1h-1.1l.238-1.184zM90.854 3.488l-.318 1.546h1.52l.317-1.546h-1.52zm-.556 2.68l-1.247 6.217h1.52l1.247-6.217h-1.52zM96.407 7.593c-.295-.204-.692-.314-1.111-.314-1.214 0-1.894 1.207-1.894 2.378 0 .809.249 1.617 1.292 1.617.374 0 .839-.108 1.236-.313l-.17 1.28c-.464.242-.964.29-1.463.29-1.508 0-2.483-1.075-2.483-2.68 0-2.174 1.35-3.827 3.448-3.827.566 0 1.11.108 1.519.241l-.374 1.328zM98.073 3.331l-1.803 9.054h1.486l.657-3.294h.023l1.508 3.294h1.712L99.9 9.005l2.801-2.837h-1.972l-2.122 2.258h-.024l1.011-5.095h-1.52zM108.177 6.168h1.1l.26-1.279 1.635-.567-.374 1.846h1.359l-.237 1.184h-1.361l-.555 2.716a2.699 2.699 0 0 0-.07.603c0 .374.24.603.58.603.272 0 .544-.06.736-.144l-.26 1.255c-.26.06-.557.145-.817.145-1.032 0-1.757-.434-1.757-1.63 0-.481.09-.953.192-1.448l.431-2.1h-1.1l.238-1.184z"/>
            <path d="M107.67 8.39c0-1.581-.953-2.366-2.393-2.366-1.917 0-3.323 1.86-3.323 3.79 0 1.847 1.133 2.716 2.813 2.716.624 0 1.27-.156 1.859-.35l.193-1.28c-.568.279-1.169.447-1.793.447-.971 0-1.539-.366-1.612-1.345h-.001c-.003-.057-.008-.111-.008-.17V9.778h.001c.007-.425.095-.846.247-1.233.293-.791.705-1.338 1.6-1.338.636 0 .965.374.965 1.039 0 .144-.012.276-.033.422h-2.08a4.053 4.053 0 0 0-.163 1.11h3.58a7.07 7.07 0 0 0 .147-1.388M112.813 6.857c.045-.243.092-.496.125-.689h1.418l-.136.834h.023a2.088 2.088 0 0 1 1.792-.978c.69 0 1.405.434 1.485 1.183h.022c.386-.808 1.237-1.183 2.053-1.183.873 0 1.621.76 1.621 1.701 0 .556-.136 1.184-.26 1.691l-.613 2.968h-1.52l.614-3.03c.079-.373.192-.953.192-1.326 0-.46-.329-.75-.715-.75-1.054 0-1.315 1.304-1.508 2.15l-.601 2.956h-1.52l.613-3.03c.08-.373.193-.953.193-1.326 0-.46-.329-.75-.715-.75-1.032 0-1.316 1.317-1.51 2.15l-.599 2.956h-1.52l1.066-5.527zM131.438 7.434c-.163-.094-.583-.227-1.014-.227-.454 0-1.021.133-1.021.628 0 .784 1.973 1.074 1.973 2.595 0 1.618-1.327 2.1-2.63 2.1-.614 0-1.225-.096-1.78-.373l.328-1.293c.43.255.862.483 1.451.483.51 0 1.044-.18 1.044-.687 0-1.003-1.973-1.1-1.973-2.656 0-1.461 1.325-1.98 2.528-1.98.556 0 1.123.108 1.422.19l-.328 1.22zM132.408 6.168h1.1l.26-1.279 1.634-.567-.374 1.846h1.36l-.238 1.184h-1.36l-.556 2.716a2.733 2.733 0 0 0-.069.603c0 .374.24.603.58.603.27 0 .543-.06.736-.144l-.26 1.255c-.261.06-.557.145-.817.145-1.033 0-1.757-.434-1.757-1.63 0-.481.09-.953.192-1.448l.43-2.1h-1.1l.239-1.184zM142.71 7.002c.046-.266.09-.544.137-.835h1.45l-.203 1.172h.022c.273-.676 1.02-1.315 1.724-1.315.193 0 .397.011.579.06l-.318 1.582a1.805 1.805 0 0 0-.578-.098c-1.078 0-1.6 1.027-1.792 2.03l-.544 2.787h-1.52l1.043-5.383zM141.655 8.39c0-1.581-.95-2.366-2.393-2.366-1.915 0-3.321 1.86-3.321 3.79 0 1.847 1.134 2.716 2.811 2.716.624 0 1.27-.156 1.86-.35l.193-1.28c-.566.279-1.168.447-1.791.447-.973 0-1.54-.366-1.614-1.345-.003-.057-.009-.111-.009-.17 0-.013 0-.024.002-.036l-.002-.018h.002a3.53 3.53 0 0 1 .248-1.233c.29-.791.704-1.338 1.599-1.338.635 0 .964.374.964 1.039 0 .144-.01.276-.034.422h-2.08a4.069 4.069 0 0 0-.16 1.11h3.578c.092-.458.147-.918.147-1.388M148.568 5.797c.724 0 1.314.627 1.314 1.399 0 .77-.59 1.397-1.314 1.397-.723 0-1.313-.627-1.313-1.397 0-.772.59-1.399 1.313-1.399zm.004 2.588c.603 0 1.059-.52 1.059-1.19 0-.669-.456-1.189-1.06-1.189-.61 0-1.067.52-1.067 1.19 0 .669.457 1.189 1.068 1.189zm-.507-2.01h.59c.354 0 .529.151.529.462 0 .261-.158.452-.397.452l.437.725h-.267l-.43-.725h-.209v.725h-.253v-1.64zm.253.704h.298c.192 0 .316-.042.316-.255 0-.186-.156-.24-.316-.24h-.298v.495z"/>
        </g>
    </g>
</svg>
