<svg width="155" height="20" viewBox="0 0 155 20" xmlns="http://www.w3.org/2000/svg">
    <title>
        mlb logo
    </title>
    <g fill="none" fill-rule="evenodd">
        <path d="M5.032 14.712C3.909 14.712 3 13.779 3 12.628V3.084C3 1.933 3.91 1 5.032 1h59.772c1.123 0 2.032.933 2.032 2.084v9.544c0 1.151-.91 2.084-2.032 2.084H5.032z" fill="#FFF"/>
        <path d="M65.756 2.107a1.328 1.328 0 0 0-.952-.408h-7.246l3.353 5.727.313.044.184.262v.248l.214.044.198.276v.234l.214.043s.213.233.213.248v.54s.469.45.895.611c.298.117.327.598.497.86.227.364.54.524.469.728-.156.569-.71 1.501-1.236 1.56h-2.075v.903h4.007c.753 0 1.35-.627 1.35-1.384v-9.56c0-.364-.142-.713-.398-.976" fill="#C00"/>
        <path d="M55.569 1.7H5.032c-.355 0-.696.145-.952.407a1.397 1.397 0 0 0-.398.977v9.544c0 .364.142.714.398.976.256.263.597.408.952.408h45.976c-.213-.364-.454-.772-.525-.903h-1.01c0-2.565.853-3.993 1.862-4.27.142-.029.071-.728-.1-.947 0 0-.482.015-.582-.014-.128-.044-.043-.175-.043-.175l.47-1.05-.058-.29h-1.747c-.028 0 1.435-1.035 1.435-1.035.071-2.725 2.799-2.93 4.433-1.807.966.67 1.051 1.982.966 2.885-.014.058-.256.015-.256.015s-.17.99.27.99h1.918c.782-.029 1.535.51 1.535.51l.184-.684-4.191-5.538z" fill="#008"/>
        <path d="M27.565 10.034a.9.9 0 0 1 .668.277c.185.19.284.408.284.685a.96.96 0 0 1-.284.685.9.9 0 0 1-.668.277.9.9 0 0 1-.667-.277.947.947 0 0 1-.27-.685c0-.262.085-.495.27-.685a.9.9 0 0 1 .667-.277M33.874 7.703l-1.322.277c-.042-.306-.142-.525-.298-.685a.886.886 0 0 0-.611-.233.98.98 0 0 0-.81.393c-.199.263-.298.714-.298 1.326 0 .7.1 1.18.298 1.472.2.291.469.423.824.423a.804.804 0 0 0 .625-.263c.157-.175.285-.466.341-.874l1.322.262c-.142.7-.398 1.224-.782 1.589-.383.364-.91.539-1.563.539-.738 0-1.335-.263-1.776-.802-.44-.539-.667-1.282-.667-2.23 0-.96.227-1.719.667-2.243.44-.54 1.038-.802 1.79-.802.612 0 1.109.146 1.478.452.355.306.611.772.782 1.399M36.204 7.572c.241-.306.54-.466.88-.466.356 0 .64.16.881.466.242.306.356.743.356 1.326 0 .583-.114 1.034-.356 1.34-.241.306-.525.467-.88.467-.356 0-.64-.16-.881-.467-.242-.306-.355-.757-.355-1.326-.015-.582.113-1.034.355-1.34m-1.407 2.958c.213.466.54.816.966 1.064a2.6 2.6 0 0 0 1.336.364c.753 0 1.378-.292 1.875-.874.498-.583.739-1.312.739-2.2 0-.875-.241-1.604-.739-2.172a2.402 2.402 0 0 0-1.89-.86c-.497 0-.951.131-1.35.38-.397.247-.71.626-.937 1.092a3.38 3.38 0 0 0-.327 1.486c0 .685.114 1.254.327 1.72M40.239 6.1h1.236v.802c.44-.612.966-.919 1.577-.919.327 0 .61.073.852.234.242.16.44.393.583.7.227-.307.469-.555.724-.7.256-.16.526-.234.825-.234.369 0 .682.088.951.263.256.175.455.422.583.772.1.248.142.656.142 1.21v3.73h-1.35V8.62c0-.583-.042-.947-.142-1.122a.62.62 0 0 0-.568-.335.824.824 0 0 0-.526.204c-.17.13-.284.32-.355.583-.071.247-.114.655-.114 1.21v2.797h-1.35V8.752c0-.568-.028-.932-.07-1.093a.664.664 0 0 0-.228-.364c-.1-.087-.241-.117-.412-.117a.829.829 0 0 0-.554.19c-.17.13-.284.32-.355.554-.071.247-.114.64-.114 1.209v2.841h-1.35L40.24 6.1zM22.664 5.328c.355 0 .824.073.994.218.17.146.256.35.256.598 0 .277-.085.48-.27.64-.185.161-.668.234-1.037.234h-.753v-1.69h.81zm.54 6.63c.639 0 1.136-.088 1.506-.277a2.38 2.38 0 0 0 .895-.845c.227-.379.34-.787.34-1.239 0-.466-.113-.889-.326-1.224-.227-.35-.568-.64-1.052-.874.285-.219.498-.452.611-.7a1.8 1.8 0 0 0 .185-.845c0-.466-.142-.889-.426-1.224-.284-.35-.654-.583-1.137-.714-.327-.102-1.492-.145-2.216-.145h-1.25v8.087h2.87zm-.611-3.556c.596 0 1.236.102 1.491.306.256.204.384.481.384.831 0 .306-.114.54-.327.7-.213.16-.852.247-1.492.247h-.795V8.402h.739zM6.14 11.958V3.885h2.373l1.435 5.508 1.392-5.508h2.387v8.073h-1.463l-.015-6.353-1.548 6.353H9.166L7.618 5.605l-.015 6.353H6.14zM14.565 3.856h1.506v6.63h3.453v1.472h-4.959V3.856z" fill="#FFF"/>
        <g fill="#475058">
            <path d="M77.147 9.2l-1.566 3.224h-.015L75.308 9.2h-.842l-1.61 3.224h-.015L72.583 9.2h-.695l.415 4.01h.819l1.624-3.223h.015l.296 3.223h.798l2.06-4.01h-.768zM78.934 7.471l-.162.834h.782l.162-.834h-.782zm-.302 1.73l-.798 4.009h.694l.798-4.009h-.694zM80.13 9.2h.842l.185-.928.746-.275-.237 1.204H82.7l-.11.597h-1.042l-.347 1.722c-.037.18-.11.612-.11.755 0 .282.147.432.5.432.15 0 .356-.04.489-.102l-.104.613c-.155.063-.48.087-.679.087-.657 0-.901-.464-.901-.889 0-.26.088-.724.133-.943l.325-1.675h-.827l.103-.597zM83.874 7.314h.695l-.466 2.39h.015c.258-.402.716-.598 1.189-.598.731 0 1.255.409 1.255 1.258 0 .235-.044.503-.088.73l-.414 2.116h-.694l.465-2.398c.023-.133.037-.29.037-.377 0-.417-.258-.731-.687-.731-.856 0-1.277.99-1.373 1.484l-.4 2.022h-.693l1.16-5.896zM127.258 12.361h-.022c-.519.697-1.037 1.092-1.87 1.092-1.048 0-1.791-.624-1.791-1.762 0-2.04 2.14-2.195 3.559-2.195h.53c.045-.169.045-.348.045-.528 0-.624-.632-.803-1.161-.803-.664 0-1.306.179-1.904.48l.215-1.284a5.586 5.586 0 0 1 1.97-.371c1.161 0 2.253.455 2.253 1.906 0 .828-.573 3.25-.71 4.414H127.1l.158-.949zm-1.476-.083c1.127 0 1.476-.828 1.713-1.822h-.53c-.732 0-1.947.131-1.947 1.175 0 .43.382.647.764.647zM88.126 7.127h1.094l.258-1.27 1.623-.564-.373 1.834h1.352l-.237 1.176h-1.352l-.55 2.698c-.035.144-.069.36-.069.6 0 .37.237.598.575.598.27 0 .54-.059.733-.142l-.26 1.246c-.26.06-.552.144-.811.144-1.025 0-1.746-.432-1.746-1.62 0-.477.09-.945.191-1.437l.429-2.087H87.89l.236-1.176zM93.252 4.465L92.937 6h1.51l.314-1.535h-1.509zM92.7 7.127l-1.239 6.176h1.51l1.24-6.176H92.7zM98.769 8.542c-.294-.202-.688-.311-1.104-.311-1.206 0-1.882 1.2-1.882 2.362 0 .803.247 1.606 1.284 1.606.372 0 .833-.107 1.227-.31l-.168 1.27c-.461.241-.957.288-1.453.288-1.499 0-2.467-1.067-2.467-2.66 0-2.16 1.34-3.803 3.425-3.803.563 0 1.103.107 1.509.24l-.371 1.318zM100.424 4.31l-1.792 8.993h1.476l.654-3.273h.022l1.498 3.273h1.701l-1.745-3.358 2.782-2.818h-1.96l-2.107 2.243h-.024l1.005-5.06h-1.51zM110.46 7.127h1.094l.258-1.27 1.624-.564-.372 1.834h1.35l-.235 1.176h-1.352l-.552 2.698c-.034.144-.068.36-.068.6 0 .37.237.598.575.598.27 0 .54-.059.731-.142l-.258 1.246c-.26.06-.553.144-.811.144-1.025 0-1.746-.432-1.746-1.62 0-.477.09-.945.191-1.437l.428-2.087h-1.093l.237-1.176z"/>
            <path d="M109.956 9.334c0-1.57-.946-2.35-2.377-2.35-1.904 0-3.3 1.847-3.3 3.765 0 1.835 1.125 2.698 2.794 2.698.62 0 1.261-.155 1.847-.347l.192-1.272c-.564.277-1.161.444-1.781.444-.966 0-1.53-.364-1.602-1.337-.004-.056-.009-.11-.009-.168V10.713h.002c.007-.422.094-.84.245-1.225.29-.786.7-1.329 1.59-1.329.63 0 .958.371.958 1.032 0 .143-.013.275-.034.42h-2.066c-.134.484-.157.81-.16 1.102h3.555c.09-.455.146-.911.146-1.379M115.066 7.812c.045-.241.091-.493.124-.685h1.409l-.136.828h.023a2.074 2.074 0 0 1 1.78-.97c.687 0 1.396.43 1.475 1.174h.022c.384-.802 1.23-1.175 2.04-1.175.868 0 1.61.755 1.61 1.69 0 .552-.135 1.176-.258 1.68l-.61 2.948h-1.508l.61-3.01c.077-.37.19-.947.19-1.317 0-.457-.327-.745-.71-.745-1.048 0-1.307 1.295-1.499 2.135l-.597 2.937h-1.509l.609-3.01c.08-.37.191-.947.191-1.317 0-.457-.326-.745-.71-.745-1.025 0-1.307 1.308-1.5 2.135l-.595 2.937h-1.51l1.059-5.49zM133.567 8.385c-.161-.094-.579-.225-1.007-.225-.451 0-1.014.131-1.014.623 0 .779 1.96 1.067 1.96 2.578 0 1.608-1.318 2.086-2.613 2.086-.61 0-1.217-.095-1.768-.371l.326-1.284c.428.253.857.48 1.442.48.507 0 1.036-.18 1.036-.683 0-.996-1.959-1.091-1.959-2.638 0-1.452 1.316-1.967 2.51-1.967.553 0 1.117.107 1.413.189l-.326 1.212zM134.53 7.127h1.094l.259-1.27 1.623-.564-.372 1.834h1.35l-.236 1.176h-1.351l-.552 2.698c-.034.144-.068.36-.068.6 0 .37.237.598.575.598.27 0 .54-.059.732-.142l-.259 1.246c-.26.06-.553.144-.81.144-1.027 0-1.747-.432-1.747-1.62 0-.477.09-.945.192-1.437l.427-2.087h-1.093l.237-1.176zM144.765 7.955c.046-.264.09-.54.136-.829h1.441l-.202 1.165h.022c.27-.672 1.013-1.307 1.712-1.307.192 0 .394.011.575.06l-.316 1.57a1.793 1.793 0 0 0-.573-.096c-1.072 0-1.59 1.02-1.78 2.016l-.541 2.768h-1.511l1.037-5.347zM143.717 9.334c0-1.57-.944-2.35-2.377-2.35-1.903 0-3.3 1.847-3.3 3.765 0 1.835 1.127 2.698 2.794 2.698.62 0 1.261-.155 1.847-.347l.192-1.272c-.563.277-1.16.444-1.78.444-.966 0-1.53-.364-1.603-1.337-.003-.056-.009-.11-.009-.168 0-.013 0-.024.002-.036l-.002-.018h.002c.006-.422.094-.84.246-1.225.288-.786.7-1.329 1.589-1.329.63 0 .958.371.958 1.032 0 .143-.011.275-.035.42h-2.065c-.133.484-.157.81-.16 1.102h3.555c.09-.455.146-.911.146-1.379M150.584 6.759c.72 0 1.306.623 1.306 1.39 0 .765-.587 1.387-1.306 1.387-.718 0-1.304-.622-1.304-1.388 0-.766.586-1.389 1.304-1.389zm.004 2.57c.6 0 1.052-.516 1.052-1.18 0-.666-.453-1.182-1.052-1.182-.606 0-1.06.516-1.06 1.181s.454 1.181 1.06 1.181zm-.503-1.997h.585c.353 0 .526.151.526.46 0 .26-.157.448-.395.448l.434.72h-.264l-.428-.72h-.207v.72h-.251V7.332zm.25.7h.297c.19 0 .314-.042.314-.254 0-.184-.155-.237-.314-.237h-.296v.491z"/>
        </g>
    </g>
</svg>
