<svg xmlns="http://www.w3.org/2000/svg" width="300" height="300" viewBox="0 0 300 300">
    <title>
        Nucleus logo
    </title>
    <desc>
        A visual representation of the Nucleus project.
    </desc>
    <path d="M113.587 137.276h6.279l1.499-6.85 9.299-3.039-2.134 9.889h7.752l-1.346 6.352h-7.76l-3.163 14.553a13.373 13.373 0 0 0-.391 3.221c0 2.009 1.35 3.236 3.291 3.236 1.565 0 3.112-.321 4.217-.767l-1.499 6.707c-1.492.34-3.163.801-4.659.801-5.87 0-10.014-2.349-10.014-8.733 0-2.598.514-5.126 1.102-7.774l2.437-11.243h-6.26l1.35-6.353zM140.04 140.978c.248-1.298.518-2.669.715-3.701h8.073l-.781 4.466h.139c2.332-3.435 6.14-5.246 10.215-5.246 3.947 0 8.021 2.33 8.485 6.349h.124c2.203-4.341 7.041-6.349 11.703-6.349 4.979 0 9.252 4.089 9.252 9.123 0 2.972-.784 6.351-1.492 9.055l-3.491 15.903h-8.661l3.484-16.225c.463-1.992 1.105-5.105 1.105-7.115 0-2.455-1.887-4.002-4.075-4.002-6.012 0-7.508 6.975-8.609 11.511l-3.415 15.831h-8.683l3.506-16.225c.445-1.992 1.102-5.105 1.102-7.115 0-2.455-1.886-4.002-4.071-4.002-5.892 0-7.508 7.044-8.613 11.511l-3.433 15.831h-8.665l6.086-29.6z" fill="#fff"/>
    <g fill="#fff">
        <circle cx="195.207" cy="70.811" r="13.775"/>
        <circle cx="103.682" cy="70.811" r="13.775"/>
        <circle cx="195.207" cy="227.711" r="13.775"/>
        <circle cx="240.036" cy="149.261" r="13.775"/>
        <circle cx="58.854" cy="149.261" r="13.775"/>
        <circle cx="103.682" cy="227.711" r="13.775"/>
        <path d="M150.102 292.679c-14.169 0-27.206-17.075-36.591-44.079a22.953 22.953 0 0 1-5.53 1.81c10.326 29.577 25.256 47.873 42.122 47.873 16.829 0 31.728-18.221 42.051-47.684a22.915 22.915 0 0 1-5.639-1.484c-9.371 26.707-22.335 43.564-36.413 43.564zM150.102 6.335c14.002 0 26.905 16.668 36.263 43.126a22.933 22.933 0 0 1 5.618-1.514C181.666 18.762 166.839.731 150.102.731c-16.776 0-31.633 18.109-41.95 47.407a22.882 22.882 0 0 1 5.505 1.853c9.371-26.761 22.35-43.656 36.445-43.656zM258.31 163.362a23.405 23.405 0 0 1-3.947 4.004c.696.812 1.412 1.625 2.085 2.438 17.71 21.345 24.142 40.038 17.645 51.289-5.885 10.193-20.691 12.331-32.075 12.331-7.296 0-15.354-.857-23.952-2.461a22.763 22.763 0 0 1-1.45 5.425c9.119 1.728 17.663 2.64 25.402 2.64 18.441 0 31.212-5.231 36.927-15.133 7.851-13.593 1.392-34.074-18.185-57.67-.79-.953-1.626-1.909-2.45-2.863zM45.151 130.688c-18.113-21.256-26.02-40.68-19.041-52.768 5.886-10.193 20.69-12.333 32.076-12.333 6.91 0 14.514.786 22.597 2.225.248-1.891.721-3.71 1.397-5.431-8.584-1.556-16.658-2.397-23.994-2.397-18.443 0-31.213 5.233-36.928 15.134-8.331 14.43-.235 36.155 19.682 59.559a23.342 23.342 0 0 1 4.211-3.989zM242.017 65.587c11.384 0 26.19 2.14 32.075 12.333 7.044 12.2-1.088 31.875-19.56 53.362a23.364 23.364 0 0 1 4.036 4.222c20.434-23.72 28.806-45.786 20.375-60.386-5.717-9.901-18.485-15.134-36.927-15.134-7.69 0-16.18.905-25.23 2.611a22.874 22.874 0 0 1 1.352 5.441c8.567-1.593 16.604-2.449 23.879-2.449zM58.186 233.424c-11.384 0-26.19-2.138-32.075-12.331-6.495-11.251-.063-29.944 17.645-51.289.507-.613 1.051-1.227 1.572-1.837a23.3 23.3 0 0 1-4.117-3.806c-.589.688-1.197 1.378-1.768 2.063-19.574 23.596-26.035 44.077-18.185 57.67 5.715 9.901 18.485 15.133 36.927 15.133 7.384 0 15.516-.851 24.164-2.426-.715-1.708-1.206-3.528-1.494-5.414-8.109 1.449-15.737 2.237-22.669 2.237zM221.357 162.82a341.393 341.393 0 0 1-15.166 11.478c.497-8.05.767-16.322.767-24.791 0-8.497-.273-16.793-.773-24.865a336.038 336.038 0 0 1 15.001 11.287 23.204 23.204 0 0 1 3.776-4.153c-6.087-4.869-12.543-9.653-19.288-14.323a345.78 345.78 0 0 0-2.886-24.831 22.95 22.95 0 0 1-5.629 1.205 340.545 340.545 0 0 1 2.459 19.52 397.39 397.39 0 0 0-21.09-13.08 393.94 393.94 0 0 0-21.955-11.75 338.353 338.353 0 0 1 17.891-7.571 22.874 22.874 0 0 1-1.85-5.277c-7.398 2.879-14.925 6.131-22.513 9.717a348.67 348.67 0 0 0-23.735-10.184 22.883 22.883 0 0 1-1.737 5.318 337.309 337.309 0 0 1 19 7.997 394.765 394.765 0 0 0-21.958 11.752 396.365 396.365 0 0 0-21.086 13.08 338.798 338.798 0 0 1 2.448-19.456 23.022 23.022 0 0 1-5.676-.869 347.274 347.274 0 0 0-2.829 24.432c-7.003 4.848-13.693 9.821-19.983 14.882a23.2 23.2 0 0 1 3.626 4.268 338.135 338.135 0 0 1 15.844-11.962 403.785 403.785 0 0 0-.77 24.864c0 8.471.27 16.743.766 24.791a337.913 337.913 0 0 1-15.983-12.145 23.227 23.227 0 0 1-3.805 4.323c6.333 5.096 13.119 10.148 20.306 15.114a349.517 349.517 0 0 0 2.756 23.925 23.086 23.086 0 0 1 5.667-.884 339.79 339.79 0 0 1-2.366-18.944 401.765 401.765 0 0 0 21.084 13.057 396.12 396.12 0 0 0 21.958 11.753 336.253 336.253 0 0 1-18.799 7.918 22.868 22.868 0 0 1 1.605 5.37c7.769-2.989 15.682-6.385 23.666-10.156 7.556 3.571 15.052 6.811 22.422 9.682.36-1.865.959-3.643 1.74-5.318a338.844 338.844 0 0 1-17.69-7.495 395.69 395.69 0 0 0 21.955-11.753 403.176 403.176 0 0 0 21.086-13.057 340.89 340.89 0 0 1-2.375 19.011 22.95 22.95 0 0 1 5.618 1.226 348.032 348.032 0 0 0 2.814-24.333 348.74 348.74 0 0 0 19.604-14.559 23.445 23.445 0 0 1-3.917-4.214zm-21.112 15.639a377.087 377.087 0 0 1-24.519 15.434 388.62 388.62 0 0 1-25.625 13.545 389.437 389.437 0 0 1-25.628-13.545 378.252 378.252 0 0 1-24.518-15.433 377.903 377.903 0 0 1-1.107-28.953c0-9.902.387-19.604 1.111-29.003a390.323 390.323 0 0 1 50.142-28.928 388.581 388.581 0 0 1 25.625 13.543 389.688 389.688 0 0 1 24.516 15.384 377.14 377.14 0 0 1 1.112 29.004c0 9.885-.386 19.568-1.109 28.952z"/>
    </g>
</svg>
