<svg xmlns="http://www.w3.org/2000/svg" width="40" height="80" viewBox="0 0 40 80">
    <path fill-rule="evenodd" clip-rule="evenodd" fill="#768892" d="M30 50h4v2h-4v-2zm-8 0h4v2h-4v-2zM10 24.11s12.686-1.51 20 6.642c0 0-9.038-5.563-20-6.64zM14 50h4v2h-4v-2zm-8 0h4v2H6v-2zm6.586-35.414c.782-.782 2.046-.782 2.828 0s.782 2.046 0 2.828-2.046.782-2.828 0-.782-2.046 0-2.828zm12 0c.782-.782 2.046-.782 2.828 0s.782 2.046 0 2.828-2.046.782-2.828 0-.782-2.046 0-2.828zM40 50V4.57C40 2.046 38.21 0 36 0H25c0 2.762-2.238 5-5 5s-5-2.238-5-5H4C1.792 0 0 2.046 0 4.57V50h2v2H0v23.43C0 77.954 1.792 80 4 80h11c0-2.762 2.238-5 5-5s5 2.238 5 5h11c2.21 0 4-2.046 4-4.57V52h-2v-2h2z"/>
</svg>
