<svg width="176" height="28" viewBox="0 0 176 28" xmlns="http://www.w3.org/2000/svg">
    <title>
        Ticketmaster verified
    </title>
    <desc>
        Ticketmaster Verified logo
    </desc>
    <g fill="none" fill-rule="evenodd">
        <path d="M87.002 18.693h-.031c-.758.954-1.514 1.496-2.732 1.496-1.534 0-2.616-.855-2.616-2.417 0-2.802 3.123-3.016 5.2-3.016h.77c.068-.232.068-.478.068-.726 0-.854-.922-1.1-1.693-1.1-.976 0-1.91.246-2.784.655l.312-1.757a8.598 8.598 0 0 1 2.88-.51c1.697 0 3.29.625 3.29 2.615 0 1.138-.838 4.462-1.034 6.062h-1.86l.23-1.302m-2.158-.115c1.649 0 2.158-1.135 2.502-2.5h-.77c-1.073 0-2.846.18-2.846 1.612 0 .589.561.888 1.114.888M29.836 11.504h1.592l.38-1.743 2.37-.775-.54 2.518h1.971l-.345 1.615h-1.978l-.804 3.704c-.051.2-.1.492-.1.825 0 .51.347.825.843.825.393 0 .788-.086 1.067-.197l-.376 1.708c-.382.085-.808.196-1.187.196-1.495 0-2.55-.584-2.55-2.22 0-.655.132-1.298.28-1.975l.624-2.866h-1.599l.352-1.615M36.515 11.504h2.2l-1.804 8.48h-2.206l1.81-8.48zm.809-3.654h2.202l-.459 2.108H36.86l.465-2.108zM45.383 13.448c-.43-.279-1.008-.428-1.616-.428-1.76 0-2.75 1.648-2.75 3.243 0 1.103.367 2.208 1.88 2.208.54 0 1.216-.15 1.792-.429l-.246 1.748c-.676.328-1.4.39-2.122.39-2.191 0-3.607-1.462-3.607-3.65 0-2.968 1.958-5.222 5.001-5.222a7.65 7.65 0 0 1 2.21.331l-.542 1.81M47.796 7.64h2.207l-1.465 6.945h.036l3.074-3.08h2.864l-4.064 3.87 2.55 4.609h-2.481l-2.195-4.493h-.029l-.955 4.493h-2.154l2.612-12.345M62.465 11.504h1.593l.381-1.743 2.369-.775-.544 2.518h1.976l-.341 1.615h-1.98l-.809 3.704c-.046.2-.097.492-.097.825 0 .51.345.825.84.825.392 0 .787-.086 1.067-.197l-.377 1.708c-.377.085-.806.196-1.185.196-1.496 0-2.549-.584-2.549-2.22 0-.655.131-1.298.277-1.975l.627-2.866h-1.598l.35-1.615" fill="#FFF"/>
        <path d="M61.724 14.535c0-2.159-1.379-3.227-3.472-3.227-2.78 0-4.824 2.538-4.824 5.17 0 2.522 1.645 3.702 4.084 3.702.906 0 1.843-.21 2.695-.472l.282-1.747c-.822.38-1.694.607-2.6.607-1.41 0-2.23-.498-2.342-1.832h-.001c0-.077-.012-.155-.012-.235v-.077h.007a4.4 4.4 0 0 1 .357-1.676c.424-1.081 1.022-1.824 2.322-1.824.92 0 1.397.509 1.397 1.414 0 .197-.016.378-.048.577h-3.016c-.2.665-.23 1.11-.235 1.509h5.194c.129-.622.212-1.247.212-1.889M69.194 12.443c.061-.33.128-.67.179-.939h2.056l-.198 1.136h.033c.594-.867 1.56-1.332 2.6-1.332 1.004 0 2.042.592 2.155 1.616h.033c.558-1.104 1.794-1.616 2.979-1.616 1.268 0 2.356 1.04 2.356 2.325 0 .754-.196 1.609-.379 2.3l-.888 4.05h-2.206l.886-4.13c.114-.514.279-1.3.279-1.81 0-.63-.473-1.023-1.035-1.023-1.528 0-1.908 1.777-2.188 2.934l-.872 4.03H72.78l.883-4.132c.12-.513.284-1.299.284-1.809 0-.63-.478-1.023-1.038-1.023-1.492 0-1.912 1.794-2.187 2.934l-.873 4.03h-2.207l1.552-7.54M96.22 13.233c-.239-.128-.848-.309-1.474-.309-.656 0-1.475.18-1.475.854 0 1.072 2.862 1.466 2.862 3.538 0 2.207-1.93 2.864-3.826 2.864-.88 0-1.774-.127-2.578-.508l.477-1.76c.623.347 1.247.656 2.101.656.745 0 1.52-.244 1.52-.936 0-1.37-2.866-1.499-2.866-3.622 0-1.995 1.926-2.702 3.677-2.702.802 0 1.626.145 2.061.263l-.48 1.662M97.627 11.504h1.6l.375-1.743 2.37-.775-.544 2.518h1.978l-.348 1.615h-1.98l-.8 3.704c-.052.2-.101.492-.101.825 0 .51.35.825.842.825a3.05 3.05 0 0 0 1.068-.197l-.376 1.708c-.384.085-.81.196-1.185.196-1.498 0-2.55-.584-2.55-2.22 0-.655.13-1.298.273-1.975l.628-2.866h-1.595l.345-1.615M112.58 12.64c.07-.362.133-.738.196-1.134h2.107l-.3 1.599h.04c.39-.925 1.478-1.797 2.5-1.797.282 0 .574.016.835.08l-.46 2.16a2.712 2.712 0 0 0-.837-.134c-1.563 0-2.321 1.398-2.604 2.767l-.784 3.803h-2.21l1.517-7.344M111.049 14.535c0-2.159-1.381-3.227-3.472-3.227-2.783 0-4.823 2.538-4.823 5.17 0 2.522 1.649 3.702 4.08 3.702.905 0 1.846-.21 2.701-.472l.276-1.747c-.819.38-1.69.607-2.595.607-1.416 0-2.236-.498-2.34-1.832h-.005c-.005-.077-.01-.155-.01-.235l.001-.048v-.029a4.495 4.495 0 0 1 .362-1.676c.42-1.081 1.018-1.824 2.32-1.824.924 0 1.399.509 1.399 1.414 0 .197-.02.378-.052.577h-3.01a4.893 4.893 0 0 0-.239 1.509h5.194a8.966 8.966 0 0 0 .213-1.889" fill="#FFF"/>
        <path d="M119.81 11.414h2.283l.864 6.297h.033l3.38-6.297h2.364l-5.01 8.58h-2.465l-1.448-8.58M129.819 16.395c0 1.582.847 2.165 2.38 2.165.915 0 1.798-.233 2.631-.615l-.284 1.766c-.864.265-1.814.482-2.73.482-2.463 0-4.13-1.199-4.13-3.749 0-2.665 2.066-5.23 4.879-5.23 2.114 0 3.513 1.082 3.513 3.265 0 .649-.083 1.282-.217 1.916h-6.042zm4.078-1.532c.033-.2.051-.384.051-.585 0-.915-.484-1.431-1.417-1.431-1.38 0-1.98.832-2.413 2.016h3.78zM137.802 12.563c.067-.366.133-.748.201-1.148h2.13l-.3 1.615h.035c.397-.933 1.497-1.816 2.53-1.816.284 0 .582.016.849.083l-.466 2.182a2.87 2.87 0 0 0-.85-.133c-1.581 0-2.347 1.416-2.63 2.798l-.8 3.849h-2.23l1.531-7.43M143.952 11.415h2.232l-1.832 8.578h-2.232l1.832-8.578zm.817-3.699H147l-.467 2.132h-2.232l.468-2.132zM148.335 13.048h-1.731l.348-1.633h1.733c.448-2.183 1.181-4.117 3.777-4.117.517 0 1.016.1 1.383.218l-.517 1.666c-.2-.099-.45-.151-.681-.151-1.234 0-1.516 1.484-1.733 2.384h2l-.35 1.633h-1.998l-1.464 6.945h-2.233l1.466-6.945M153.733 11.415h2.231l-1.832 8.578h-2.23l1.831-8.578zm.816-3.699h2.23l-.465 2.132h-2.231l.466-2.132zM158.21 16.395c0 1.582.85 2.165 2.38 2.165.918 0 1.799-.233 2.63-.615l-.282 1.766c-.865.265-1.814.482-2.73.482-2.465 0-4.129-1.199-4.129-3.749 0-2.665 2.064-5.23 4.878-5.23 2.114 0 3.513 1.082 3.513 3.265 0 .649-.084 1.282-.216 1.916h-6.044zm4.078-1.532c.035-.2.051-.384.051-.585 0-.915-.482-1.431-1.415-1.431-1.383 0-1.981.832-2.414 2.016h3.778zM175.282 7.5l-2.313 10.595c-.134.732-.266 1.465-.317 1.898h-2.079l.214-1.266h-.033c-.665.934-1.499 1.464-2.797 1.464-2.031 0-2.947-1.697-2.947-3.562 0-2.568 1.398-5.416 4.312-5.416 1.1 0 1.95.418 2.649 1.216l1.081-4.93h2.23zm-7.94 8.928c0 .867.266 2.033 1.366 2.033 1.631 0 2.596-1.9 2.596-3.482 0-.999-.483-2.032-1.614-2.032-1.599 0-2.349 2.2-2.349 3.481z" fill="#009CDE"/>
        <path d="M.569 16.78l.056.027-.046-.047-.01.02M.569 16.75l.01.01.014-.035-.024.024M7.464 18.144c.012.024.02.051.03.079.013-.01.026-.016.038-.023l-.068-.056" fill="#414141"/>
        <path d="M21.223 8.551a2.458 2.458 0 0 1-1.748.726 2.478 2.478 0 0 1-1.75-4.227l-2.732-2.732-2.767 2.769a2.138 2.138 0 0 1-1.248-2.917L7.948.77.592 16.725l-.014.035.046.047L3.3 19.483a2.465 2.465 0 0 1 3.025-.369 5.428 5.428 0 0 1 1.17-.892c-.012-.027-.02-.054-.031-.078a3.89 3.89 0 0 0-2.413-.833 3.9 3.9 0 0 0-.834.088c-.249.053-.49.13-.723.23l-.459-.46-.418-.42L12.805 6.56l.744-.748 1.444-1.444.877.877a3.949 3.949 0 0 0-.319 1.557c0 .19.019.38.046.564a3.91 3.91 0 0 0 3.878 3.36c.542 0 1.07-.108 1.555-.317l.876.877-7.9 7.903c.168.175.324.361.466.56.147.2.278.41.395.631l9.087-9.094-2.731-2.734zm-11.8-5.6A3.51 3.51 0 0 0 11.2 6.113l-7.825 7.828L8.614 2.576l.809.374z" fill="#FFF"/>
        <path d="M14.222 21.023a4.325 4.325 0 0 0-.827-1.222 4.477 4.477 0 0 0-5.236-.952c-.168.082-.33.172-.489.274-.047.03-.093.065-.138.096a4.494 4.494 0 0 0-1.902 3.674 4.504 4.504 0 0 0 4.5 4.503 4.505 4.505 0 0 0 4.503-4.503c0-.667-.151-1.298-.41-1.87" fill="#009CDE"/>
        <path d="M9.626 25.627L7.253 23.25l1.027-1.033 1.345 1.353 2.843-2.851 1.029 1.03-3.87 3.88M117.505 16.493c1.018 0 1.855.828 1.855 1.848a1.856 1.856 0 0 1-1.855 1.852 1.85 1.85 0 0 1 0-3.7zm.01 3.422c.846 0 1.491-.683 1.491-1.574 0-.887-.645-1.575-1.492-1.575-.863 0-1.504.688-1.504 1.575 0 .891.64 1.574 1.504 1.574zm-.72-2.663h.835c.501 0 .742.202.742.612 0 .349-.218.602-.558.602l.618.955h-.373l-.611-.955h-.295v.955h-.358v-2.169zm.358.938h.419c.271 0 .448-.06.448-.339 0-.246-.216-.32-.448-.32h-.419v.659z" fill="#FFF"/>
    </g>
</svg>
